<svg width="253" height="109" viewBox="0 0 253 109" fill="none" xmlns="http://www.w3.org/2000/svg">
<mask id="path-1-outside-1_456_3365" maskUnits="userSpaceOnUse" x="0" y="0" width="253" height="109" fill="black">
<rect fill="white" width="253" height="109"/>
<path d="M12.9939 47V9.5H1.41391V2.3H32.6139V9.5H21.2139V47H12.9939ZM33.3592 47V14.36H40.7392V21.62L40.1392 20.54C40.8992 18.1 42.0792 16.4 43.6792 15.44C45.3192 14.48 47.2792 14 49.5592 14H51.4792V20.96H48.6592C46.4192 20.96 44.6192 21.66 43.2592 23.06C41.8992 24.42 41.2192 26.34 41.2192 28.82V47H33.3592ZM71.2806 47.72C67.9206 47.72 64.9806 46.96 62.4606 45.44C59.9406 43.92 57.9806 41.86 56.5806 39.26C55.1806 36.66 54.4806 33.78 54.4806 30.62C54.4806 27.34 55.1806 24.44 56.5806 21.92C58.0206 19.36 59.9606 17.34 62.4006 15.86C64.8806 14.38 67.6406 13.64 70.6806 13.64C73.2406 13.64 75.4806 14.06 77.4006 14.9C79.3606 15.74 81.0206 16.9 82.3806 18.38C83.7406 19.86 84.7806 21.56 85.5006 23.48C86.2206 25.36 86.5806 27.4 86.5806 29.6C86.5806 30.16 86.5406 30.74 86.4606 31.34C86.4206 31.94 86.3206 32.46 86.1606 32.9H60.9606V26.9H81.7206L78.0006 29.72C78.3606 27.88 78.2606 26.24 77.7006 24.8C77.1806 23.36 76.3006 22.22 75.0606 21.38C73.8606 20.54 72.4006 20.12 70.6806 20.12C69.0406 20.12 67.5806 20.54 66.3006 21.38C65.0206 22.18 64.0406 23.38 63.3606 24.98C62.7206 26.54 62.4806 28.44 62.6406 30.68C62.4806 32.68 62.7406 34.46 63.4206 36.02C64.1406 37.54 65.1806 38.72 66.5406 39.56C67.9406 40.4 69.5406 40.82 71.3406 40.82C73.1406 40.82 74.6606 40.44 75.9006 39.68C77.1806 38.92 78.1806 37.9 78.9006 36.62L85.2606 39.74C84.6206 41.3 83.6206 42.68 82.2606 43.88C80.9006 45.08 79.2806 46.02 77.4006 46.7C75.5606 47.38 73.5206 47.72 71.2806 47.72ZM92.5389 47V14.36H99.9189V20.78L99.3189 19.64C100.079 17.68 101.319 16.2 103.039 15.2C104.799 14.16 106.839 13.64 109.159 13.64C111.559 13.64 113.679 14.16 115.519 15.2C117.399 16.24 118.859 17.7 119.899 19.58C120.939 21.42 121.459 23.56 121.459 26V47H113.599V27.86C113.599 26.42 113.319 25.18 112.759 24.14C112.199 23.1 111.419 22.3 110.419 21.74C109.459 21.14 108.319 20.84 106.999 20.84C105.719 20.84 104.579 21.14 103.579 21.74C102.579 22.3 101.799 23.1 101.239 24.14C100.679 25.18 100.399 26.42 100.399 27.86V47H92.5389ZM143.285 47.72C140.125 47.72 137.305 46.98 134.825 45.5C132.345 43.98 130.385 41.92 128.945 39.32C127.505 36.72 126.785 33.84 126.785 30.68C126.785 27.48 127.505 24.6 128.945 22.04C130.385 19.48 132.345 17.44 134.825 15.92C137.345 14.4 140.145 13.64 143.225 13.64C145.705 13.64 147.905 14.14 149.825 15.14C151.785 16.1 153.325 17.46 154.445 19.22L153.245 20.84V1.58H161.105V47H153.665V40.7L154.505 42.26C153.385 44.02 151.825 45.38 149.825 46.34C147.825 47.26 145.645 47.72 143.285 47.72ZM144.125 40.52C145.925 40.52 147.505 40.1 148.865 39.26C150.225 38.42 151.285 37.26 152.045 35.78C152.845 34.3 153.245 32.6 153.245 30.68C153.245 28.8 152.845 27.12 152.045 25.64C151.285 24.12 150.225 22.94 148.865 22.1C147.505 21.26 145.925 20.84 144.125 20.84C142.365 20.84 140.785 21.28 139.385 22.16C137.985 23 136.885 24.16 136.085 25.64C135.325 27.08 134.945 28.76 134.945 30.68C134.945 32.6 135.325 34.3 136.085 35.78C136.885 37.26 137.985 38.42 139.385 39.26C140.785 40.1 142.365 40.52 144.125 40.52ZM168.418 47V14.36H176.278V47H168.418ZM168.418 10.7V2.3H176.278V10.7H168.418ZM183.535 47V14.36H190.915V20.78L190.315 19.64C191.075 17.68 192.315 16.2 194.035 15.2C195.795 14.16 197.835 13.64 200.155 13.64C202.555 13.64 204.675 14.16 206.515 15.2C208.395 16.24 209.855 17.7 210.895 19.58C211.935 21.42 212.455 23.56 212.455 26V47H204.595V27.86C204.595 26.42 204.315 25.18 203.755 24.14C203.195 23.1 202.415 22.3 201.415 21.74C200.455 21.14 199.315 20.84 197.995 20.84C196.715 20.84 195.575 21.14 194.575 21.74C193.575 22.3 192.795 23.1 192.235 24.14C191.675 25.18 191.395 26.42 191.395 27.86V47H183.535ZM234.941 60.2C232.501 60.2 230.241 59.8 228.161 59C226.081 58.2 224.281 57.08 222.761 55.64C221.281 54.24 220.201 52.58 219.521 50.66L226.841 47.9C227.321 49.42 228.261 50.64 229.661 51.56C231.101 52.52 232.861 53 234.941 53C236.541 53 237.941 52.7 239.141 52.1C240.381 51.5 241.341 50.62 242.021 49.46C242.701 48.34 243.041 46.98 243.041 45.38V37.94L244.541 39.74C243.421 41.7 241.921 43.18 240.041 44.18C238.161 45.18 236.021 45.68 233.621 45.68C230.581 45.68 227.861 44.98 225.461 43.58C223.061 42.18 221.181 40.26 219.821 37.82C218.461 35.38 217.781 32.64 217.781 29.6C217.781 26.52 218.461 23.78 219.821 21.38C221.181 18.98 223.041 17.1 225.401 15.74C227.761 14.34 230.441 13.64 233.441 13.64C235.881 13.64 238.021 14.16 239.861 15.2C241.741 16.2 243.301 17.66 244.541 19.58L243.461 21.56V14.36H250.901V45.38C250.901 48.22 250.201 50.76 248.801 53C247.441 55.24 245.561 57 243.161 58.28C240.801 59.56 238.061 60.2 234.941 60.2ZM234.581 38.42C236.261 38.42 237.721 38.06 238.961 37.34C240.241 36.58 241.241 35.54 241.961 34.22C242.681 32.9 243.041 31.38 243.041 29.66C243.041 27.98 242.661 26.48 241.901 25.16C241.181 23.8 240.181 22.74 238.901 21.98C237.661 21.22 236.221 20.84 234.581 20.84C232.941 20.84 231.461 21.22 230.141 21.98C228.821 22.74 227.781 23.8 227.021 25.16C226.301 26.48 225.941 27.98 225.941 29.66C225.941 31.34 226.301 32.84 227.021 34.16C227.781 35.48 228.801 36.52 230.081 37.28C231.401 38.04 232.901 38.42 234.581 38.42ZM33.7488 107.72C30.9088 107.72 28.2688 107.2 25.8288 106.16C23.4288 105.12 21.3488 103.68 19.5888 101.84C17.8688 99.96 16.6088 97.78 15.8088 95.3L22.5888 92.36C23.6688 94.92 25.2288 96.94 27.2688 98.42C29.3088 99.86 31.6088 100.58 34.1688 100.58C35.6088 100.58 36.8488 100.36 37.8888 99.92C38.9688 99.44 39.7888 98.8 40.3488 98C40.9488 97.2 41.2488 96.24 41.2488 95.12C41.2488 93.8 40.8488 92.72 40.0488 91.88C39.2888 91 38.1288 90.32 36.5688 89.84L27.9888 87.08C24.5088 86 21.8888 84.38 20.1288 82.22C18.3688 80.06 17.4888 77.52 17.4888 74.6C17.4888 72.04 18.1088 69.78 19.3488 67.82C20.6288 65.86 22.3888 64.34 24.6288 63.26C26.9088 62.14 29.5088 61.58 32.4288 61.58C35.1088 61.58 37.5688 62.06 39.8088 63.02C42.0488 63.94 43.9688 65.24 45.5688 66.92C47.2088 68.56 48.4288 70.5 49.2288 72.74L42.5088 75.74C41.6288 73.5 40.3088 71.78 38.5488 70.58C36.7888 69.34 34.7488 68.72 32.4288 68.72C31.0688 68.72 29.8688 68.96 28.8288 69.44C27.7888 69.88 26.9688 70.52 26.3688 71.36C25.8088 72.16 25.5288 73.12 25.5288 74.24C25.5288 75.48 25.9288 76.58 26.7288 77.54C27.5288 78.46 28.7488 79.18 30.3888 79.7L38.6088 82.28C42.1688 83.44 44.8288 85.04 46.5888 87.08C48.3888 89.12 49.2888 91.64 49.2888 94.64C49.2888 97.2 48.6288 99.46 47.3088 101.42C45.9888 103.38 44.1688 104.92 41.8488 106.04C39.5288 107.16 36.8288 107.72 33.7488 107.72ZM55.9764 107V74.36H63.3564V80.78L62.7564 79.64C63.5164 77.68 64.7564 76.2 66.4764 75.2C68.2364 74.16 70.2764 73.64 72.5964 73.64C74.9964 73.64 77.1164 74.16 78.9564 75.2C80.8364 76.24 82.2964 77.7 83.3364 79.58C84.3764 81.42 84.8964 83.56 84.8964 86V107H77.0364V87.86C77.0364 86.42 76.7564 85.18 76.1964 84.14C75.6364 83.1 74.8564 82.3 73.8564 81.74C72.8964 81.14 71.7564 80.84 70.4364 80.84C69.1564 80.84 68.0164 81.14 67.0164 81.74C66.0164 82.3 65.2364 83.1 64.6764 84.14C64.1164 85.18 63.8364 86.42 63.8364 87.86V107H55.9764ZM107.023 107.72C103.663 107.72 100.723 106.96 98.2028 105.44C95.6828 103.92 93.7228 101.86 92.3228 99.26C90.9228 96.66 90.2228 93.78 90.2228 90.62C90.2228 87.34 90.9228 84.44 92.3228 81.92C93.7628 79.36 95.7028 77.34 98.1428 75.86C100.623 74.38 103.383 73.64 106.423 73.64C108.983 73.64 111.223 74.06 113.143 74.9C115.103 75.74 116.763 76.9 118.123 78.38C119.483 79.86 120.523 81.56 121.243 83.48C121.963 85.36 122.323 87.4 122.323 89.6C122.323 90.16 122.283 90.74 122.203 91.34C122.163 91.94 122.063 92.46 121.903 92.9H96.7028V86.9H117.463L113.743 89.72C114.103 87.88 114.003 86.24 113.443 84.8C112.923 83.36 112.043 82.22 110.803 81.38C109.603 80.54 108.143 80.12 106.423 80.12C104.783 80.12 103.323 80.54 102.043 81.38C100.763 82.18 99.7828 83.38 99.1028 84.98C98.4628 86.54 98.2228 88.44 98.3828 90.68C98.2228 92.68 98.4828 94.46 99.1628 96.02C99.8828 97.54 100.923 98.72 102.283 99.56C103.683 100.4 105.283 100.82 107.083 100.82C108.883 100.82 110.403 100.44 111.643 99.68C112.923 98.92 113.923 97.9 114.643 96.62L121.003 99.74C120.363 101.3 119.363 102.68 118.003 103.88C116.643 105.08 115.023 106.02 113.143 106.7C111.303 107.38 109.263 107.72 107.023 107.72ZM138.064 107.72C135.784 107.72 133.804 107.34 132.124 106.58C130.444 105.82 129.144 104.74 128.224 103.34C127.304 101.9 126.844 100.24 126.844 98.36C126.844 96.56 127.244 94.96 128.044 93.56C128.844 92.12 130.084 90.92 131.764 89.96C133.444 89 135.564 88.32 138.124 87.92L148.804 86.18V92.18L139.624 93.74C138.064 94.02 136.904 94.52 136.144 95.24C135.384 95.96 135.004 96.9 135.004 98.06C135.004 99.18 135.424 100.08 136.264 100.76C137.144 101.4 138.224 101.72 139.504 101.72C141.144 101.72 142.584 101.38 143.824 100.7C145.104 99.98 146.084 99 146.764 97.76C147.484 96.52 147.844 95.16 147.844 93.68V85.28C147.844 83.88 147.284 82.72 146.164 81.8C145.084 80.84 143.644 80.36 141.844 80.36C140.164 80.36 138.664 80.82 137.344 81.74C136.064 82.62 135.124 83.8 134.524 85.28L128.104 82.16C128.744 80.44 129.744 78.96 131.104 77.72C132.504 76.44 134.144 75.44 136.024 74.72C137.904 74 139.944 73.64 142.144 73.64C144.824 73.64 147.184 74.14 149.224 75.14C151.264 76.1 152.844 77.46 153.964 79.22C155.124 80.94 155.704 82.96 155.704 85.28V107H148.264V101.42L149.944 101.3C149.104 102.7 148.104 103.88 146.944 104.84C145.784 105.76 144.464 106.48 142.984 107C141.504 107.48 139.864 107.72 138.064 107.72ZM162.969 107V61.58H170.829V91.34L167.829 90.44L183.189 74.36H192.969L180.909 87.5L193.209 107H184.209L173.529 90.08L178.209 89.12L168.369 99.68L170.829 94.88V107H162.969ZM212.492 107.72C209.132 107.72 206.192 106.96 203.672 105.44C201.152 103.92 199.192 101.86 197.792 99.26C196.392 96.66 195.692 93.78 195.692 90.62C195.692 87.34 196.392 84.44 197.792 81.92C199.232 79.36 201.172 77.34 203.612 75.86C206.092 74.38 208.852 73.64 211.892 73.64C214.452 73.64 216.692 74.06 218.612 74.9C220.572 75.74 222.232 76.9 223.592 78.38C224.952 79.86 225.992 81.56 226.712 83.48C227.432 85.36 227.792 87.4 227.792 89.6C227.792 90.16 227.752 90.74 227.672 91.34C227.632 91.94 227.532 92.46 227.372 92.9H202.172V86.9H222.932L219.212 89.72C219.572 87.88 219.472 86.24 218.912 84.8C218.392 83.36 217.512 82.22 216.272 81.38C215.072 80.54 213.612 80.12 211.892 80.12C210.252 80.12 208.792 80.54 207.512 81.38C206.232 82.18 205.252 83.38 204.572 84.98C203.932 86.54 203.692 88.44 203.852 90.68C203.692 92.68 203.952 94.46 204.632 96.02C205.352 97.54 206.392 98.72 207.752 99.56C209.152 100.4 210.752 100.82 212.552 100.82C214.352 100.82 215.872 100.44 217.112 99.68C218.392 98.92 219.392 97.9 220.112 96.62L226.472 99.74C225.832 101.3 224.832 102.68 223.472 103.88C222.112 105.08 220.492 106.02 218.612 106.7C216.772 107.38 214.732 107.72 212.492 107.72ZM233.75 107V74.36H241.13V81.62L240.53 80.54C241.29 78.1 242.47 76.4 244.07 75.44C245.71 74.48 247.67 74 249.95 74H251.87V80.96H249.05C246.81 80.96 245.01 81.66 243.65 83.06C242.29 84.42 241.61 86.34 241.61 88.82V107H233.75Z"/>
</mask>
<path d="M12.9939 47V9.5H1.41391V2.3H32.6139V9.5H21.2139V47H12.9939ZM33.3592 47V14.36H40.7392V21.62L40.1392 20.54C40.8992 18.1 42.0792 16.4 43.6792 15.44C45.3192 14.48 47.2792 14 49.5592 14H51.4792V20.96H48.6592C46.4192 20.96 44.6192 21.66 43.2592 23.06C41.8992 24.42 41.2192 26.34 41.2192 28.82V47H33.3592ZM71.2806 47.72C67.9206 47.72 64.9806 46.96 62.4606 45.44C59.9406 43.92 57.9806 41.86 56.5806 39.26C55.1806 36.66 54.4806 33.78 54.4806 30.62C54.4806 27.34 55.1806 24.44 56.5806 21.92C58.0206 19.36 59.9606 17.34 62.4006 15.86C64.8806 14.38 67.6406 13.64 70.6806 13.64C73.2406 13.64 75.4806 14.06 77.4006 14.9C79.3606 15.74 81.0206 16.9 82.3806 18.38C83.7406 19.86 84.7806 21.56 85.5006 23.48C86.2206 25.36 86.5806 27.4 86.5806 29.6C86.5806 30.16 86.5406 30.74 86.4606 31.34C86.4206 31.94 86.3206 32.46 86.1606 32.9H60.9606V26.9H81.7206L78.0006 29.72C78.3606 27.88 78.2606 26.24 77.7006 24.8C77.1806 23.36 76.3006 22.22 75.0606 21.38C73.8606 20.54 72.4006 20.12 70.6806 20.12C69.0406 20.12 67.5806 20.54 66.3006 21.38C65.0206 22.18 64.0406 23.38 63.3606 24.98C62.7206 26.54 62.4806 28.44 62.6406 30.68C62.4806 32.68 62.7406 34.46 63.4206 36.02C64.1406 37.54 65.1806 38.72 66.5406 39.56C67.9406 40.4 69.5406 40.82 71.3406 40.82C73.1406 40.82 74.6606 40.44 75.9006 39.68C77.1806 38.92 78.1806 37.9 78.9006 36.62L85.2606 39.74C84.6206 41.3 83.6206 42.68 82.2606 43.88C80.9006 45.08 79.2806 46.02 77.4006 46.7C75.5606 47.38 73.5206 47.72 71.2806 47.72ZM92.5389 47V14.36H99.9189V20.78L99.3189 19.64C100.079 17.68 101.319 16.2 103.039 15.2C104.799 14.16 106.839 13.64 109.159 13.64C111.559 13.64 113.679 14.16 115.519 15.2C117.399 16.24 118.859 17.7 119.899 19.58C120.939 21.42 121.459 23.56 121.459 26V47H113.599V27.86C113.599 26.42 113.319 25.18 112.759 24.14C112.199 23.1 111.419 22.3 110.419 21.74C109.459 21.14 108.319 20.84 106.999 20.84C105.719 20.84 104.579 21.14 103.579 21.74C102.579 22.3 101.799 23.1 101.239 24.14C100.679 25.18 100.399 26.42 100.399 27.86V47H92.5389ZM143.285 47.72C140.125 47.72 137.305 46.98 134.825 45.5C132.345 43.98 130.385 41.92 128.945 39.32C127.505 36.72 126.785 33.84 126.785 30.68C126.785 27.48 127.505 24.6 128.945 22.04C130.385 19.48 132.345 17.44 134.825 15.92C137.345 14.4 140.145 13.64 143.225 13.64C145.705 13.64 147.905 14.14 149.825 15.14C151.785 16.1 153.325 17.46 154.445 19.22L153.245 20.84V1.58H161.105V47H153.665V40.7L154.505 42.26C153.385 44.02 151.825 45.38 149.825 46.34C147.825 47.26 145.645 47.72 143.285 47.72ZM144.125 40.52C145.925 40.52 147.505 40.1 148.865 39.26C150.225 38.42 151.285 37.26 152.045 35.78C152.845 34.3 153.245 32.6 153.245 30.68C153.245 28.8 152.845 27.12 152.045 25.64C151.285 24.12 150.225 22.94 148.865 22.1C147.505 21.26 145.925 20.84 144.125 20.84C142.365 20.84 140.785 21.28 139.385 22.16C137.985 23 136.885 24.16 136.085 25.64C135.325 27.08 134.945 28.76 134.945 30.68C134.945 32.6 135.325 34.3 136.085 35.78C136.885 37.26 137.985 38.42 139.385 39.26C140.785 40.1 142.365 40.52 144.125 40.52ZM168.418 47V14.36H176.278V47H168.418ZM168.418 10.7V2.3H176.278V10.7H168.418ZM183.535 47V14.36H190.915V20.78L190.315 19.64C191.075 17.68 192.315 16.2 194.035 15.2C195.795 14.16 197.835 13.64 200.155 13.64C202.555 13.64 204.675 14.16 206.515 15.2C208.395 16.24 209.855 17.7 210.895 19.58C211.935 21.42 212.455 23.56 212.455 26V47H204.595V27.86C204.595 26.42 204.315 25.18 203.755 24.14C203.195 23.1 202.415 22.3 201.415 21.74C200.455 21.14 199.315 20.84 197.995 20.84C196.715 20.84 195.575 21.14 194.575 21.74C193.575 22.3 192.795 23.1 192.235 24.14C191.675 25.18 191.395 26.42 191.395 27.86V47H183.535ZM234.941 60.2C232.501 60.2 230.241 59.8 228.161 59C226.081 58.2 224.281 57.08 222.761 55.64C221.281 54.24 220.201 52.58 219.521 50.66L226.841 47.9C227.321 49.42 228.261 50.64 229.661 51.56C231.101 52.52 232.861 53 234.941 53C236.541 53 237.941 52.7 239.141 52.1C240.381 51.5 241.341 50.62 242.021 49.46C242.701 48.34 243.041 46.98 243.041 45.38V37.94L244.541 39.74C243.421 41.7 241.921 43.18 240.041 44.18C238.161 45.18 236.021 45.68 233.621 45.68C230.581 45.68 227.861 44.98 225.461 43.58C223.061 42.18 221.181 40.26 219.821 37.82C218.461 35.38 217.781 32.64 217.781 29.6C217.781 26.52 218.461 23.78 219.821 21.38C221.181 18.98 223.041 17.1 225.401 15.74C227.761 14.34 230.441 13.64 233.441 13.64C235.881 13.64 238.021 14.16 239.861 15.2C241.741 16.2 243.301 17.66 244.541 19.58L243.461 21.56V14.36H250.901V45.38C250.901 48.22 250.201 50.76 248.801 53C247.441 55.24 245.561 57 243.161 58.28C240.801 59.56 238.061 60.2 234.941 60.2ZM234.581 38.42C236.261 38.42 237.721 38.06 238.961 37.34C240.241 36.58 241.241 35.54 241.961 34.22C242.681 32.9 243.041 31.38 243.041 29.66C243.041 27.98 242.661 26.48 241.901 25.16C241.181 23.8 240.181 22.74 238.901 21.98C237.661 21.22 236.221 20.84 234.581 20.84C232.941 20.84 231.461 21.22 230.141 21.98C228.821 22.74 227.781 23.8 227.021 25.16C226.301 26.48 225.941 27.98 225.941 29.66C225.941 31.34 226.301 32.84 227.021 34.16C227.781 35.48 228.801 36.52 230.081 37.28C231.401 38.04 232.901 38.42 234.581 38.42ZM33.7488 107.72C30.9088 107.72 28.2688 107.2 25.8288 106.16C23.4288 105.12 21.3488 103.68 19.5888 101.84C17.8688 99.96 16.6088 97.78 15.8088 95.3L22.5888 92.36C23.6688 94.92 25.2288 96.94 27.2688 98.42C29.3088 99.86 31.6088 100.58 34.1688 100.58C35.6088 100.58 36.8488 100.36 37.8888 99.92C38.9688 99.44 39.7888 98.8 40.3488 98C40.9488 97.2 41.2488 96.24 41.2488 95.12C41.2488 93.8 40.8488 92.72 40.0488 91.88C39.2888 91 38.1288 90.32 36.5688 89.84L27.9888 87.08C24.5088 86 21.8888 84.38 20.1288 82.22C18.3688 80.06 17.4888 77.52 17.4888 74.6C17.4888 72.04 18.1088 69.78 19.3488 67.82C20.6288 65.86 22.3888 64.34 24.6288 63.26C26.9088 62.14 29.5088 61.58 32.4288 61.58C35.1088 61.58 37.5688 62.06 39.8088 63.02C42.0488 63.94 43.9688 65.24 45.5688 66.92C47.2088 68.56 48.4288 70.5 49.2288 72.74L42.5088 75.74C41.6288 73.5 40.3088 71.78 38.5488 70.58C36.7888 69.34 34.7488 68.72 32.4288 68.72C31.0688 68.72 29.8688 68.96 28.8288 69.44C27.7888 69.88 26.9688 70.52 26.3688 71.36C25.8088 72.16 25.5288 73.12 25.5288 74.24C25.5288 75.48 25.9288 76.58 26.7288 77.54C27.5288 78.46 28.7488 79.18 30.3888 79.7L38.6088 82.28C42.1688 83.44 44.8288 85.04 46.5888 87.08C48.3888 89.12 49.2888 91.64 49.2888 94.64C49.2888 97.2 48.6288 99.46 47.3088 101.42C45.9888 103.38 44.1688 104.92 41.8488 106.04C39.5288 107.16 36.8288 107.72 33.7488 107.72ZM55.9764 107V74.36H63.3564V80.78L62.7564 79.64C63.5164 77.68 64.7564 76.2 66.4764 75.2C68.2364 74.16 70.2764 73.64 72.5964 73.64C74.9964 73.64 77.1164 74.16 78.9564 75.2C80.8364 76.24 82.2964 77.7 83.3364 79.58C84.3764 81.42 84.8964 83.56 84.8964 86V107H77.0364V87.86C77.0364 86.42 76.7564 85.18 76.1964 84.14C75.6364 83.1 74.8564 82.3 73.8564 81.74C72.8964 81.14 71.7564 80.84 70.4364 80.84C69.1564 80.84 68.0164 81.14 67.0164 81.74C66.0164 82.3 65.2364 83.1 64.6764 84.14C64.1164 85.18 63.8364 86.42 63.8364 87.86V107H55.9764ZM107.023 107.72C103.663 107.72 100.723 106.96 98.2028 105.44C95.6828 103.92 93.7228 101.86 92.3228 99.26C90.9228 96.66 90.2228 93.78 90.2228 90.62C90.2228 87.34 90.9228 84.44 92.3228 81.92C93.7628 79.36 95.7028 77.34 98.1428 75.86C100.623 74.38 103.383 73.64 106.423 73.64C108.983 73.64 111.223 74.06 113.143 74.9C115.103 75.74 116.763 76.9 118.123 78.38C119.483 79.86 120.523 81.56 121.243 83.48C121.963 85.36 122.323 87.4 122.323 89.6C122.323 90.16 122.283 90.74 122.203 91.34C122.163 91.94 122.063 92.46 121.903 92.9H96.7028V86.9H117.463L113.743 89.72C114.103 87.88 114.003 86.24 113.443 84.8C112.923 83.36 112.043 82.22 110.803 81.38C109.603 80.54 108.143 80.12 106.423 80.12C104.783 80.12 103.323 80.54 102.043 81.38C100.763 82.18 99.7828 83.38 99.1028 84.98C98.4628 86.54 98.2228 88.44 98.3828 90.68C98.2228 92.68 98.4828 94.46 99.1628 96.02C99.8828 97.54 100.923 98.72 102.283 99.56C103.683 100.4 105.283 100.82 107.083 100.82C108.883 100.82 110.403 100.44 111.643 99.68C112.923 98.92 113.923 97.9 114.643 96.62L121.003 99.74C120.363 101.3 119.363 102.68 118.003 103.88C116.643 105.08 115.023 106.02 113.143 106.7C111.303 107.38 109.263 107.72 107.023 107.72ZM138.064 107.72C135.784 107.72 133.804 107.34 132.124 106.58C130.444 105.82 129.144 104.74 128.224 103.34C127.304 101.9 126.844 100.24 126.844 98.36C126.844 96.56 127.244 94.96 128.044 93.56C128.844 92.12 130.084 90.92 131.764 89.96C133.444 89 135.564 88.32 138.124 87.92L148.804 86.18V92.18L139.624 93.74C138.064 94.02 136.904 94.52 136.144 95.24C135.384 95.96 135.004 96.9 135.004 98.06C135.004 99.18 135.424 100.08 136.264 100.76C137.144 101.4 138.224 101.72 139.504 101.72C141.144 101.72 142.584 101.38 143.824 100.7C145.104 99.98 146.084 99 146.764 97.76C147.484 96.52 147.844 95.16 147.844 93.68V85.28C147.844 83.88 147.284 82.72 146.164 81.8C145.084 80.84 143.644 80.36 141.844 80.36C140.164 80.36 138.664 80.82 137.344 81.74C136.064 82.62 135.124 83.8 134.524 85.28L128.104 82.16C128.744 80.44 129.744 78.96 131.104 77.72C132.504 76.44 134.144 75.44 136.024 74.72C137.904 74 139.944 73.64 142.144 73.64C144.824 73.64 147.184 74.14 149.224 75.14C151.264 76.1 152.844 77.46 153.964 79.22C155.124 80.94 155.704 82.96 155.704 85.28V107H148.264V101.42L149.944 101.3C149.104 102.7 148.104 103.88 146.944 104.84C145.784 105.76 144.464 106.48 142.984 107C141.504 107.48 139.864 107.72 138.064 107.72ZM162.969 107V61.58H170.829V91.34L167.829 90.44L183.189 74.36H192.969L180.909 87.5L193.209 107H184.209L173.529 90.08L178.209 89.12L168.369 99.68L170.829 94.88V107H162.969ZM212.492 107.72C209.132 107.72 206.192 106.96 203.672 105.44C201.152 103.92 199.192 101.86 197.792 99.26C196.392 96.66 195.692 93.78 195.692 90.62C195.692 87.34 196.392 84.44 197.792 81.92C199.232 79.36 201.172 77.34 203.612 75.86C206.092 74.38 208.852 73.64 211.892 73.64C214.452 73.64 216.692 74.06 218.612 74.9C220.572 75.74 222.232 76.9 223.592 78.38C224.952 79.86 225.992 81.56 226.712 83.48C227.432 85.36 227.792 87.4 227.792 89.6C227.792 90.16 227.752 90.74 227.672 91.34C227.632 91.94 227.532 92.46 227.372 92.9H202.172V86.9H222.932L219.212 89.72C219.572 87.88 219.472 86.24 218.912 84.8C218.392 83.36 217.512 82.22 216.272 81.38C215.072 80.54 213.612 80.12 211.892 80.12C210.252 80.12 208.792 80.54 207.512 81.38C206.232 82.18 205.252 83.38 204.572 84.98C203.932 86.54 203.692 88.44 203.852 90.68C203.692 92.68 203.952 94.46 204.632 96.02C205.352 97.54 206.392 98.72 207.752 99.56C209.152 100.4 210.752 100.82 212.552 100.82C214.352 100.82 215.872 100.44 217.112 99.68C218.392 98.92 219.392 97.9 220.112 96.62L226.472 99.74C225.832 101.3 224.832 102.68 223.472 103.88C222.112 105.08 220.492 106.02 218.612 106.7C216.772 107.38 214.732 107.72 212.492 107.72ZM233.75 107V74.36H241.13V81.62L240.53 80.54C241.29 78.1 242.47 76.4 244.07 75.44C245.71 74.48 247.67 74 249.95 74H251.87V80.96H249.05C246.81 80.96 245.01 81.66 243.65 83.06C242.29 84.42 241.61 86.34 241.61 88.82V107H233.75Z" fill="white"/>
<path d="M12.9939 47H11.9939V48H12.9939V47ZM12.9939 9.5H13.9939V8.5H12.9939V9.5ZM1.41391 9.5H0.413906V10.5H1.41391V9.5ZM1.41391 2.3V1.3H0.413906V2.3H1.41391ZM32.6139 2.3H33.6139V1.3H32.6139V2.3ZM32.6139 9.5V10.5H33.6139V9.5H32.6139ZM21.2139 9.5V8.5H20.2139V9.5H21.2139ZM21.2139 47V48H22.2139V47H21.2139ZM13.9939 47V9.5H11.9939V47H13.9939ZM12.9939 8.5H1.41391V10.5H12.9939V8.5ZM2.41391 9.5V2.3H0.413906V9.5H2.41391ZM1.41391 3.3H32.6139V1.3H1.41391V3.3ZM31.6139 2.3V9.5H33.6139V2.3H31.6139ZM32.6139 8.5H21.2139V10.5H32.6139V8.5ZM20.2139 9.5V47H22.2139V9.5H20.2139ZM21.2139 46H12.9939V48H21.2139V46ZM33.3592 47H32.3592V48H33.3592V47ZM33.3592 14.36V13.36H32.3592V14.36H33.3592ZM40.7392 14.36H41.7392V13.36H40.7392V14.36ZM40.7392 21.62L39.8651 22.1056L41.7392 25.4791V21.62H40.7392ZM40.1392 20.54L39.1845 20.2426L39.0571 20.6514L39.2651 21.0256L40.1392 20.54ZM43.6792 15.44L43.174 14.5769L43.1647 14.5825L43.6792 15.44ZM51.4792 14H52.4792V13H51.4792V14ZM51.4792 20.96V21.96H52.4792V20.96H51.4792ZM43.2592 23.06L43.9663 23.7671L43.9714 23.762L43.9765 23.7568L43.2592 23.06ZM41.2192 47V48H42.2192V47H41.2192ZM34.3592 47V14.36H32.3592V47H34.3592ZM33.3592 15.36H40.7392V13.36H33.3592V15.36ZM39.7392 14.36V21.62H41.7392V14.36H39.7392ZM41.6134 21.1344L41.0134 20.0544L39.2651 21.0256L39.8651 22.1056L41.6134 21.1344ZM41.094 20.8374C41.8081 18.5446 42.8712 17.091 44.1937 16.2975L43.1647 14.5825C41.2872 15.709 39.9903 17.6554 39.1845 20.2426L41.094 20.8374ZM44.1844 16.303C45.6431 15.4491 47.4212 15 49.5592 15V13C47.1372 13 44.9953 13.5109 43.174 14.577L44.1844 16.303ZM49.5592 15H51.4792V13H49.5592V15ZM50.4792 14V20.96H52.4792V14H50.4792ZM51.4792 19.96H48.6592V21.96H51.4792V19.96ZM48.6592 19.96C46.1925 19.96 44.1185 20.7402 42.5419 22.3632L43.9765 23.7568C45.1199 22.5797 46.646 21.96 48.6592 21.96V19.96ZM42.5521 22.3529C40.9546 23.9504 40.2192 26.155 40.2192 28.82H42.2192C42.2192 26.525 42.8439 24.8896 43.9663 23.7671L42.5521 22.3529ZM40.2192 28.82V47H42.2192V28.82H40.2192ZM41.2192 46H33.3592V48H41.2192V46ZM62.4606 45.44L61.9441 46.2963L61.9441 46.2963L62.4606 45.44ZM56.5806 39.26L57.4611 38.7859L56.5806 39.26ZM56.5806 21.92L55.709 21.4297L55.7065 21.4344L56.5806 21.92ZM62.4006 15.86L61.8882 15.0013L61.882 15.005L62.4006 15.86ZM77.4006 14.9L76.9998 15.8162L77.0067 15.8191L77.4006 14.9ZM82.3806 18.38L81.6443 19.0566L81.6443 19.0566L82.3806 18.38ZM85.5006 23.48L84.5643 23.8311L84.5668 23.8376L85.5006 23.48ZM86.4606 31.34L85.4694 31.2078L85.465 31.2406L85.4628 31.2735L86.4606 31.34ZM86.1606 32.9V33.9H86.8611L87.1004 33.2417L86.1606 32.9ZM60.9606 32.9H59.9606V33.9H60.9606V32.9ZM60.9606 26.9V25.9H59.9606V26.9H60.9606ZM81.7206 26.9L82.3247 27.6969L84.6951 25.9H81.7206V26.9ZM78.0006 29.72L77.0192 29.528L76.5159 32.1003L78.6047 30.5169L78.0006 29.72ZM77.7006 24.8L76.7601 25.1396L76.7642 25.1511L76.7686 25.1624L77.7006 24.8ZM75.0606 21.38L74.4872 22.1992L74.4934 22.2036L74.4998 22.2079L75.0606 21.38ZM66.3006 21.38L66.8306 22.228L66.84 22.2221L66.8493 22.216L66.3006 21.38ZM63.3606 24.98L62.4402 24.5888L62.4355 24.6004L63.3606 24.98ZM62.6406 30.68L63.6374 30.7597L63.6435 30.6843L63.6381 30.6088L62.6406 30.68ZM63.4206 36.02L62.5039 36.4196L62.5102 36.4339L62.5169 36.4481L63.4206 36.02ZM66.5406 39.56L66.0151 40.4109L66.0261 40.4175L66.5406 39.56ZM75.9006 39.68L75.39 38.8201L75.3781 38.8274L75.9006 39.68ZM78.9006 36.62L79.3411 35.7222L78.4924 35.3059L78.029 36.1297L78.9006 36.62ZM85.2606 39.74L86.1858 40.1196L86.5408 39.2542L85.7011 38.8422L85.2606 39.74ZM82.2606 43.88L82.9222 44.6298L82.9222 44.6298L82.2606 43.88ZM77.4006 46.7L77.0605 45.7596L77.054 45.762L77.4006 46.7ZM71.2806 46.72C68.0763 46.72 65.3201 45.997 62.9771 44.5837L61.9441 46.2963C64.6411 47.923 67.7649 48.72 71.2806 48.72V46.72ZM62.9771 44.5837C60.611 43.1565 58.7765 41.2288 57.4611 38.7859L55.7002 39.7341C57.1848 42.4912 59.2702 44.6835 61.9441 46.2963L62.9771 44.5837ZM57.4611 38.7859C56.145 36.3418 55.4806 33.6265 55.4806 30.62H53.4806C53.4806 33.9335 54.2162 36.9782 55.7002 39.7341L57.4611 38.7859ZM55.4806 30.62C55.4806 27.4862 56.1481 24.7576 57.4548 22.4056L55.7065 21.4344C54.2131 24.1224 53.4806 27.1938 53.4806 30.62H55.4806ZM57.4522 22.4103C58.8104 19.9956 60.6307 18.1031 62.9192 16.715L61.882 15.005C59.2905 16.5769 57.2308 18.7244 55.709 21.4297L57.4522 22.4103ZM62.9131 16.7187C65.2299 15.3361 67.8112 14.64 70.6806 14.64V12.64C67.4701 12.64 64.5314 13.4239 61.8882 15.0013L62.9131 16.7187ZM70.6806 14.64C73.1325 14.64 75.2309 15.0423 76.9998 15.8162L77.8014 13.9838C75.7303 13.0777 73.3488 12.64 70.6806 12.64V14.64ZM77.0067 15.8191C78.8448 16.6069 80.3858 17.687 81.6443 19.0566L83.117 17.7034C81.6555 16.113 79.8765 14.8731 77.7945 13.9809L77.0067 15.8191ZM81.6443 19.0566C82.9156 20.44 83.8885 22.029 84.5643 23.8311L86.437 23.1289C85.6728 21.091 84.5657 19.2799 83.117 17.7034L81.6443 19.0566ZM84.5668 23.8376C85.2392 25.5933 85.5806 27.5109 85.5806 29.6H87.5806C87.5806 27.2891 87.2021 25.1267 86.4345 23.1224L84.5668 23.8376ZM85.5806 29.6C85.5806 30.1124 85.544 30.6482 85.4694 31.2078L87.4519 31.4722C87.5372 30.8318 87.5806 30.2076 87.5806 29.6H85.5806ZM85.4628 31.2735C85.4274 31.8047 85.341 32.2278 85.2208 32.5583L87.1004 33.2417C87.3003 32.6922 87.4138 32.0753 87.4584 31.4065L85.4628 31.2735ZM86.1606 31.9H60.9606V33.9H86.1606V31.9ZM61.9606 32.9V26.9H59.9606V32.9H61.9606ZM60.9606 27.9H81.7206V25.9H60.9606V27.9ZM81.1165 26.1031L77.3965 28.9231L78.6047 30.5169L82.3247 27.6969L81.1165 26.1031ZM78.982 29.912C79.3706 27.9261 79.2746 26.0884 78.6326 24.4376L76.7686 25.1624C77.2466 26.3916 77.3507 27.8339 77.0192 29.528L78.982 29.912ZM78.6412 24.4604C78.0511 22.8263 77.0406 21.5134 75.6215 20.5521L74.4998 22.2079C75.5607 22.9266 76.3101 23.8937 76.7601 25.1396L78.6412 24.4604ZM75.6341 20.5608C74.2382 19.5837 72.5691 19.12 70.6806 19.12V21.12C72.2322 21.12 73.483 21.4963 74.4872 22.1992L75.6341 20.5608ZM70.6806 19.12C68.8602 19.12 67.2067 19.5893 65.752 20.544L66.8493 22.216C67.9545 21.4907 69.221 21.12 70.6806 21.12V19.12ZM65.7706 20.532C64.2914 21.4565 63.1879 22.8297 62.4403 24.5889L64.281 25.3711C64.8933 23.9303 65.7499 22.9035 66.8306 22.228L65.7706 20.532ZM62.4355 24.6004C61.7208 26.3424 61.4757 28.4062 61.6432 30.7512L63.6381 30.6088C63.4856 28.4738 63.7204 26.7376 64.2858 25.3596L62.4355 24.6004ZM61.6438 30.6003C61.473 32.7348 61.7474 34.684 62.5039 36.4196L64.3373 35.6204C63.7339 34.236 63.4882 32.6252 63.6374 30.7597L61.6438 30.6003ZM62.5169 36.4481C63.315 38.133 64.4821 39.4639 66.0151 40.4108L67.0661 38.7092C65.8791 37.9761 64.9663 36.947 64.3244 35.5919L62.5169 36.4481ZM66.0261 40.4175C67.5972 41.3601 69.3785 41.82 71.3406 41.82V39.82C69.7027 39.82 68.2841 39.4399 67.0551 38.7025L66.0261 40.4175ZM71.3406 41.82C73.2814 41.82 74.9924 41.4095 76.4232 40.5326L75.3781 38.8274C74.3288 39.4705 72.9999 39.82 71.3406 39.82V41.82ZM76.4112 40.5399C77.8397 39.6917 78.9651 38.5451 79.7722 37.1103L78.029 36.1297C77.3962 37.2549 76.5216 38.1483 75.3901 38.8201L76.4112 40.5399ZM78.4602 37.5178L84.8202 40.6378L85.7011 38.8422L79.3411 35.7222L78.4602 37.5178ZM84.3355 39.3604C83.7581 40.7678 82.8528 42.0239 81.599 43.1302L82.9222 44.6298C84.3885 43.3361 85.4832 41.8322 86.1858 40.1196L84.3355 39.3604ZM81.599 43.1302C80.3424 44.2389 78.8344 45.118 77.0605 45.7596L77.7408 47.6404C79.7269 46.922 81.4588 45.9211 82.9222 44.6298L81.599 43.1302ZM77.054 45.762C75.3395 46.3956 73.4189 46.72 71.2806 46.72V48.72C73.6224 48.72 75.7817 48.3644 77.7473 47.638L77.054 45.762ZM92.5389 47H91.5389V48H92.5389V47ZM92.5389 14.36V13.36H91.5389V14.36H92.5389ZM99.9189 14.36H100.919V13.36H99.9189V14.36ZM99.9189 20.78L99.034 21.2457L100.919 20.78H99.9189ZM99.3189 19.64L98.3865 19.2785L98.222 19.7029L98.434 20.1057L99.3189 19.64ZM103.039 15.2L103.542 16.0645L103.548 16.0609L103.039 15.2ZM115.519 15.2L115.027 16.0706L115.035 16.075L115.519 15.2ZM119.899 19.58L119.024 20.0641L119.028 20.0721L119.899 19.58ZM121.459 47V48H122.459V47H121.459ZM113.599 47H112.599V48H113.599V47ZM112.759 24.14L113.639 23.6659L113.639 23.6659L112.759 24.14ZM110.419 21.74L109.889 22.588L109.909 22.6007L109.93 22.6125L110.419 21.74ZM103.579 21.74L104.068 22.6125L104.081 22.6052L104.093 22.5975L103.579 21.74ZM101.239 24.14L102.119 24.6141L102.119 24.6141L101.239 24.14ZM100.399 47V48H101.399V47H100.399ZM93.5389 47V14.36H91.5389V47H93.5389ZM92.5389 15.36H99.9189V13.36H92.5389V15.36ZM98.9189 14.36V20.78H100.919V14.36H98.9189ZM100.804 20.3143L100.204 19.1743L98.434 20.1057L99.034 21.2457L100.804 20.3143ZM100.251 20.0015C100.934 18.2402 102.029 16.9437 103.542 16.0645L102.536 14.3355C100.609 15.4563 99.2236 17.1198 98.3865 19.2785L100.251 20.0015ZM103.548 16.0609C105.134 15.1237 106.993 14.64 109.159 14.64V12.64C106.685 12.64 104.464 13.1963 102.53 14.3391L103.548 16.0609ZM109.159 14.64C111.41 14.64 113.356 15.1264 115.027 16.0706L116.011 14.3294C114.001 13.1936 111.708 12.64 109.159 12.64V14.64ZM115.035 16.075C116.75 17.024 118.075 18.3485 119.024 20.0641L120.774 19.0959C119.643 17.0515 118.047 15.456 116.003 14.325L115.035 16.075ZM119.028 20.0721C119.971 21.7401 120.459 23.7055 120.459 26H122.459C122.459 23.4145 121.907 21.0999 120.769 19.0879L119.028 20.0721ZM120.459 26V47H122.459V26H120.459ZM121.459 46H113.599V48H121.459V46ZM114.599 47V27.86H112.599V47H114.599ZM114.599 27.86C114.599 26.2904 114.293 24.8803 113.639 23.6659L111.878 24.6141C112.345 25.4797 112.599 26.5496 112.599 27.86H114.599ZM113.639 23.6659C112.992 22.464 112.079 21.5233 110.908 20.8675L109.93 22.6125C110.759 23.0767 111.406 23.736 111.878 24.6141L113.639 23.6659ZM110.949 20.892C109.805 20.1771 108.475 19.84 106.999 19.84V21.84C108.163 21.84 109.113 22.1029 109.889 22.588L110.949 20.892ZM106.999 19.84C105.556 19.84 104.235 20.1803 103.064 20.8825L104.093 22.5975C104.923 22.0997 105.882 21.84 106.999 21.84V19.84ZM103.09 20.8675C101.919 21.5233 101.006 22.464 100.358 23.6659L102.119 24.6141C102.592 23.736 103.239 23.0767 104.068 22.6125L103.09 20.8675ZM100.358 23.6659C99.7046 24.8802 99.3989 26.2904 99.3989 27.86H101.399C101.399 26.5496 101.653 25.4797 102.119 24.6141L100.358 23.6659ZM99.3989 27.86V47H101.399V27.86H99.3989ZM100.399 46H92.5389V48H100.399V46ZM134.825 45.5L134.303 46.3527L134.313 46.3587L134.825 45.5ZM128.945 39.32L129.82 38.8355L128.945 39.32ZM128.945 22.04L129.817 22.5303L129.817 22.5303L128.945 22.04ZM134.825 15.92L134.309 15.0637L134.303 15.0674L134.825 15.92ZM149.825 15.14L149.363 16.0269L149.374 16.0326L149.385 16.0381L149.825 15.14ZM154.445 19.22L155.249 19.8152L155.658 19.263L155.289 18.6831L154.445 19.22ZM153.245 20.84H152.245V23.87L154.049 21.4352L153.245 20.84ZM153.245 1.58V0.579998H152.245V1.58H153.245ZM161.105 1.58H162.105V0.579998H161.105V1.58ZM161.105 47V48H162.105V47H161.105ZM153.665 47H152.665V48H153.665V47ZM153.665 40.7L154.546 40.2259L152.665 40.7H153.665ZM154.505 42.26L155.349 42.7969L155.664 42.3022L155.386 41.7859L154.505 42.26ZM149.825 46.34L150.243 47.2485L150.251 47.2451L150.258 47.2415L149.825 46.34ZM148.865 39.26L148.34 38.4092L148.34 38.4092L148.865 39.26ZM152.045 35.78L151.166 35.3045L151.161 35.3138L151.156 35.3232L152.045 35.78ZM152.045 25.64L151.151 26.0872L151.158 26.1015L151.166 26.1155L152.045 25.64ZM148.865 22.1L148.34 22.9508L148.34 22.9508L148.865 22.1ZM139.385 22.16L139.9 23.0175L139.909 23.0122L139.917 23.0066L139.385 22.16ZM136.085 25.64L135.206 25.1645L135.201 25.1732L136.085 25.64ZM136.085 35.78L135.196 36.2368L135.201 36.2462L135.206 36.2555L136.085 35.78ZM139.385 39.26L139.9 38.4025L139.9 38.4025L139.385 39.26ZM143.285 46.72C140.288 46.72 137.648 46.0202 135.338 44.6413L134.313 46.3587C136.962 47.9398 139.962 48.72 143.285 48.72V46.72ZM135.348 44.6474C133.018 43.2197 131.178 41.2879 129.82 38.8355L128.071 39.8045C129.592 42.5521 131.672 44.7403 134.303 46.3526L135.348 44.6474ZM129.82 38.8355C128.467 36.3932 127.785 33.6816 127.785 30.68H125.785C125.785 33.9984 126.543 37.0468 128.071 39.8045L129.82 38.8355ZM127.785 30.68C127.785 27.6359 128.469 24.9274 129.817 22.5303L128.074 21.5497C126.542 24.2726 125.785 27.3241 125.785 30.68H127.785ZM129.817 22.5303C131.174 20.1173 133.015 18.2026 135.348 16.7726L134.303 15.0674C131.676 16.6774 129.596 18.8427 128.074 21.5497L129.817 22.5303ZM135.342 16.7763C137.699 15.3548 140.318 14.64 143.225 14.64V12.64C139.972 12.64 136.992 13.4452 134.309 15.0637L135.342 16.7763ZM143.225 14.64C145.568 14.64 147.606 15.1114 149.363 16.0269L150.287 14.2531C148.205 13.1686 145.843 12.64 143.225 12.64V14.64ZM149.385 16.0381C151.188 16.921 152.585 18.1595 153.602 19.7569L155.289 18.6831C154.066 16.7605 152.382 15.279 150.265 14.2419L149.385 16.0381ZM153.642 18.6248L152.442 20.2448L154.049 21.4352L155.249 19.8152L153.642 18.6248ZM154.245 20.84V1.58H152.245V20.84H154.245ZM153.245 2.58H161.105V0.579998H153.245V2.58ZM160.105 1.58V47H162.105V1.58H160.105ZM161.105 46H153.665V48H161.105V46ZM154.665 47V40.7H152.665V47H154.665ZM152.785 41.1741L153.625 42.7341L155.386 41.7859L154.546 40.2259L152.785 41.1741ZM153.662 41.7231C152.648 43.3155 151.235 44.5539 149.393 45.4385L150.258 47.2415C152.415 46.2061 154.122 44.7245 155.349 42.7969L153.662 41.7231ZM149.407 45.4315C147.548 46.287 145.512 46.72 143.285 46.72V48.72C145.779 48.72 148.103 48.233 150.243 47.2485L149.407 45.4315ZM144.125 41.52C146.087 41.52 147.854 41.0602 149.391 40.1108L148.34 38.4092C147.157 39.1398 145.764 39.52 144.125 39.52V41.52ZM149.391 40.1108C150.912 39.1711 152.095 37.8719 152.935 36.2368L151.156 35.3232C150.475 36.6481 149.538 37.6689 148.34 38.4092L149.391 40.1108ZM152.925 36.2555C153.815 34.6099 154.245 32.7423 154.245 30.68H152.245C152.245 32.4577 151.876 33.9901 151.166 35.3045L152.925 36.2555ZM154.245 30.68C154.245 28.6538 153.813 26.8071 152.925 25.1645L151.166 26.1155C151.878 27.4329 152.245 28.9462 152.245 30.68H154.245ZM152.94 25.1928C152.102 23.5175 150.919 22.1931 149.391 21.2492L148.34 22.9508C149.532 23.6869 150.469 24.7225 151.151 26.0872L152.94 25.1928ZM149.391 21.2492C147.854 20.2998 146.087 19.84 144.125 19.84V21.84C145.764 21.84 147.157 22.2202 148.34 22.9508L149.391 21.2492ZM144.125 19.84C142.19 19.84 140.423 20.3266 138.853 21.3134L139.917 23.0066C141.148 22.2334 142.541 21.84 144.125 21.84V19.84ZM138.871 21.3025C137.312 22.2377 136.088 23.5317 135.206 25.1645L136.965 26.1155C137.682 24.7883 138.658 23.7623 139.9 23.0175L138.871 21.3025ZM135.201 25.1732C134.352 26.7808 133.945 28.6264 133.945 30.68H135.945C135.945 28.8936 136.298 27.3792 136.97 26.1068L135.201 25.1732ZM133.945 30.68C133.945 32.7343 134.353 34.5951 135.196 36.2368L136.975 35.3232C136.298 34.0049 135.945 32.4657 135.945 30.68H133.945ZM135.206 36.2555C136.088 37.8883 137.312 39.1823 138.871 40.1175L139.9 38.4025C138.658 37.6577 137.682 36.6317 136.965 35.3045L135.206 36.2555ZM138.871 40.1175C140.438 41.058 142.199 41.52 144.125 41.52V39.52C142.532 39.52 141.132 39.142 139.9 38.4025L138.871 40.1175ZM168.418 47H167.418V48H168.418V47ZM168.418 14.36V13.36H167.418V14.36H168.418ZM176.278 14.36H177.278V13.36H176.278V14.36ZM176.278 47V48H177.278V47H176.278ZM168.418 10.7H167.418V11.7H168.418V10.7ZM168.418 2.3V1.3H167.418V2.3H168.418ZM176.278 2.3H177.278V1.3H176.278V2.3ZM176.278 10.7V11.7H177.278V10.7H176.278ZM169.418 47V14.36H167.418V47H169.418ZM168.418 15.36H176.278V13.36H168.418V15.36ZM175.278 14.36V47H177.278V14.36H175.278ZM176.278 46H168.418V48H176.278V46ZM169.418 10.7V2.3H167.418V10.7H169.418ZM168.418 3.3H176.278V1.3H168.418V3.3ZM175.278 2.3V10.7H177.278V2.3H175.278ZM176.278 9.7H168.418V11.7H176.278V9.7ZM183.535 47H182.535V48H183.535V47ZM183.535 14.36V13.36H182.535V14.36H183.535ZM190.915 14.36H191.915V13.36H190.915V14.36ZM190.915 20.78L190.03 21.2457L191.915 20.78H190.915ZM190.315 19.64L189.383 19.2785L189.218 19.7029L189.43 20.1057L190.315 19.64ZM194.035 15.2L194.538 16.0645L194.544 16.0609L194.035 15.2ZM206.515 15.2L206.023 16.0706L206.031 16.075L206.515 15.2ZM210.895 19.58L210.02 20.0641L210.024 20.0721L210.895 19.58ZM212.455 47V48H213.455V47H212.455ZM204.595 47H203.595V48H204.595V47ZM203.755 24.14L204.635 23.6659L204.635 23.6659L203.755 24.14ZM201.415 21.74L200.885 22.588L200.905 22.6007L200.926 22.6125L201.415 21.74ZM194.575 21.74L195.064 22.6125L195.077 22.6052L195.089 22.5975L194.575 21.74ZM192.235 24.14L193.115 24.6141L193.115 24.6141L192.235 24.14ZM191.395 47V48H192.395V47H191.395ZM184.535 47V14.36H182.535V47H184.535ZM183.535 15.36H190.915V13.36H183.535V15.36ZM189.915 14.36V20.78H191.915V14.36H189.915ZM191.8 20.3143L191.2 19.1743L189.43 20.1057L190.03 21.2457L191.8 20.3143ZM191.247 20.0015C191.93 18.2402 193.025 16.9437 194.538 16.0645L193.532 14.3355C191.605 15.4563 190.22 17.1198 189.383 19.2785L191.247 20.0015ZM194.544 16.0609C196.13 15.1237 197.989 14.64 200.155 14.64V12.64C197.681 12.64 195.46 13.1963 193.526 14.3391L194.544 16.0609ZM200.155 14.64C202.406 14.64 204.352 15.1264 206.023 16.0706L207.007 14.3294C204.998 13.1936 202.704 12.64 200.155 12.64V14.64ZM206.031 16.075C207.746 17.024 209.071 18.3485 210.02 20.0641L211.77 19.0959C210.639 17.0515 209.044 15.456 206.999 14.325L206.031 16.075ZM210.024 20.0721C210.967 21.7401 211.455 23.7055 211.455 26H213.455C213.455 23.4145 212.903 21.0999 211.766 19.0879L210.024 20.0721ZM211.455 26V47H213.455V26H211.455ZM212.455 46H204.595V48H212.455V46ZM205.595 47V27.86H203.595V47H205.595ZM205.595 27.86C205.595 26.2904 205.289 24.8803 204.635 23.6659L202.875 24.6141C203.341 25.4797 203.595 26.5496 203.595 27.86H205.595ZM204.635 23.6659C203.988 22.464 203.075 21.5233 201.904 20.8675L200.926 22.6125C201.755 23.0767 202.402 23.736 202.875 24.6141L204.635 23.6659ZM201.945 20.892C200.801 20.1771 199.471 19.84 197.995 19.84V21.84C199.159 21.84 200.109 22.1029 200.885 22.588L201.945 20.892ZM197.995 19.84C196.552 19.84 195.231 20.1803 194.061 20.8825L195.089 22.5975C195.919 22.0997 196.878 21.84 197.995 21.84V19.84ZM194.086 20.8675C192.915 21.5233 192.002 22.464 191.355 23.6659L193.115 24.6141C193.588 23.736 194.235 23.0767 195.064 22.6125L194.086 20.8675ZM191.355 23.6659C190.701 24.8802 190.395 26.2904 190.395 27.86H192.395C192.395 26.5496 192.649 25.4797 193.115 24.6141L191.355 23.6659ZM190.395 27.86V47H192.395V27.86H190.395ZM191.395 46H183.535V48H191.395V46ZM228.161 59L228.52 58.0667L228.52 58.0667L228.161 59ZM222.761 55.64L223.449 54.914L223.449 54.9135L222.761 55.64ZM219.521 50.66L219.169 49.7243L218.252 50.0701L218.579 50.9938L219.521 50.66ZM226.841 47.9L227.795 47.5989L227.477 46.5917L226.489 46.9643L226.841 47.9ZM229.661 51.56L230.216 50.7279L230.211 50.7243L229.661 51.56ZM239.141 52.1L238.706 51.1998L238.694 51.2056L239.141 52.1ZM242.021 49.46L241.167 48.941L241.163 48.9476L241.159 48.9543L242.021 49.46ZM243.041 37.94L243.81 37.2998L242.041 35.178V37.94H243.041ZM244.541 39.74L245.41 40.2361L245.754 39.6333L245.31 39.0998L244.541 39.74ZM240.041 44.18L240.511 45.0629L240.511 45.0629L240.041 44.18ZM225.461 43.58L224.958 44.4438L224.958 44.4438L225.461 43.58ZM219.821 37.82L220.695 37.3331L220.695 37.3331L219.821 37.82ZM219.821 21.38L220.691 21.873L220.691 21.873L219.821 21.38ZM225.401 15.74L225.901 16.6065L225.912 16.6001L225.401 15.74ZM239.861 15.2L239.369 16.0706L239.38 16.0769L239.392 16.0829L239.861 15.2ZM244.541 19.58L245.419 20.0589L245.704 19.5369L245.381 19.0375L244.541 19.58ZM243.461 21.56H242.461L244.339 22.0389L243.461 21.56ZM243.461 14.36V13.36H242.461V14.36H243.461ZM250.901 14.36H251.901V13.36H250.901V14.36ZM248.801 53L247.953 52.47L247.947 52.481L248.801 53ZM243.161 58.28L242.691 57.3976L242.685 57.401L243.161 58.28ZM238.961 37.34L239.464 38.2048L239.472 38.1999L238.961 37.34ZM241.961 34.22L242.839 34.6989L242.839 34.6989L241.961 34.22ZM241.901 25.16L241.018 25.6279L241.026 25.6436L241.035 25.659L241.901 25.16ZM238.901 21.98L238.379 22.8327L238.391 22.8399L238.901 21.98ZM230.141 21.98L229.642 21.1134L229.642 21.1134L230.141 21.98ZM227.021 25.16L226.148 24.6722L226.144 24.6811L227.021 25.16ZM227.021 34.16L226.144 34.6389L226.149 34.649L226.155 34.659L227.021 34.16ZM230.081 37.28L229.571 38.1399L229.582 38.1466L230.081 37.28ZM234.941 59.2C232.612 59.2 230.475 58.8186 228.52 58.0667L227.802 59.9333C230.007 60.7814 232.39 61.2 234.941 61.2V59.2ZM228.52 58.0667C226.555 57.3106 224.868 56.2584 223.449 54.914L222.074 56.366C223.695 57.9016 225.608 59.0894 227.802 59.9333L228.52 58.0667ZM223.449 54.9135C222.084 53.6223 221.091 52.0969 220.464 50.3262L218.579 50.9938C219.312 53.0631 220.479 54.8577 222.074 56.3665L223.449 54.9135ZM219.874 51.5957L227.194 48.8357L226.489 46.9643L219.169 49.7243L219.874 51.5957ZM225.888 48.2011C226.441 49.9523 227.531 51.3563 229.112 52.3957L230.211 50.7243C228.992 49.9237 228.202 48.8877 227.795 47.5989L225.888 48.2011ZM229.107 52.3921C230.742 53.482 232.704 54 234.941 54V52C233.018 52 231.461 51.558 230.216 50.728L229.107 52.3921ZM234.941 54C236.667 54 238.225 53.676 239.589 52.9944L238.694 51.2056C237.657 51.724 236.416 52 234.941 52V54ZM239.577 53.0002C240.991 52.3161 242.101 51.301 242.884 49.9657L241.159 48.9543C240.581 49.939 239.772 50.6839 238.706 51.1998L239.577 53.0002ZM242.876 49.979C243.67 48.6712 244.041 47.1225 244.041 45.38H242.041C242.041 46.8375 241.733 48.0088 241.167 48.941L242.876 49.979ZM244.041 45.38V37.94H242.041V45.38H244.041ZM242.273 38.5802L243.773 40.3802L245.31 39.0998L243.81 37.2998L242.273 38.5802ZM243.673 39.2439C242.641 41.0502 241.275 42.3912 239.572 43.2971L240.511 45.0629C242.568 43.9688 244.202 42.3498 245.41 40.2361L243.673 39.2439ZM239.572 43.2971C237.854 44.2109 235.879 44.68 233.621 44.68V46.68C236.164 46.68 238.469 46.1491 240.511 45.0629L239.572 43.2971ZM233.621 44.68C230.741 44.68 228.198 44.0187 225.965 42.7162L224.958 44.4438C227.525 45.9413 230.422 46.68 233.621 46.68V44.68ZM225.965 42.7162C223.721 41.407 221.968 39.6175 220.695 37.3331L218.948 38.3069C220.395 40.9024 222.402 42.953 224.958 44.4438L225.965 42.7162ZM220.695 37.3331C219.425 35.0549 218.781 32.485 218.781 29.6H216.781C216.781 32.795 217.498 35.7051 218.948 38.3069L220.695 37.3331ZM218.781 29.6C218.781 26.6722 219.426 24.1057 220.691 21.873L218.951 20.887C217.497 23.4543 216.781 26.3678 216.781 29.6H218.781ZM220.691 21.873C221.965 19.6263 223.697 17.8761 225.901 16.6064L224.902 14.8736C222.385 16.3239 220.398 18.3337 218.951 20.887L220.691 21.873ZM225.912 16.6001C228.103 15.3001 230.604 14.64 233.441 14.64V12.64C230.279 12.64 227.42 13.3799 224.891 14.8799L225.912 16.6001ZM233.441 14.64C235.736 14.64 237.701 15.1277 239.369 16.0706L240.353 14.3294C238.342 13.1923 236.027 12.64 233.441 12.64V14.64ZM239.392 16.0829C241.11 16.997 242.547 18.3349 243.701 20.1225L245.381 19.0375C244.056 16.9851 242.372 15.403 240.331 14.3171L239.392 16.0829ZM243.664 19.1011L242.584 21.0811L244.339 22.0389L245.419 20.0589L243.664 19.1011ZM244.461 21.56V14.36H242.461V21.56H244.461ZM243.461 15.36H250.901V13.36H243.461V15.36ZM249.901 14.36V45.38H251.901V14.36H249.901ZM249.901 45.38C249.901 48.0472 249.247 50.4009 247.953 52.47L249.649 53.53C251.156 51.1191 251.901 48.3928 251.901 45.38H249.901ZM247.947 52.481C246.683 54.5616 244.939 56.1987 242.691 57.3976L243.632 59.1624C246.184 57.8013 248.199 55.9184 249.656 53.519L247.947 52.481ZM242.685 57.401C240.493 58.5896 237.922 59.2 234.941 59.2V61.2C238.201 61.2 241.11 60.5304 243.638 59.159L242.685 57.401ZM234.581 39.42C236.407 39.42 238.047 39.0275 239.464 38.2048L238.459 36.4752C237.396 37.0925 236.116 37.42 234.581 37.42V39.42ZM239.472 38.1999C240.908 37.3472 242.034 36.1749 242.839 34.6989L241.084 33.7411C240.449 34.9051 239.575 35.8128 238.451 36.4801L239.472 38.1999ZM242.839 34.6989C243.65 33.212 244.041 31.523 244.041 29.66H242.041C242.041 31.237 241.712 32.588 241.084 33.7411L242.839 34.6989ZM244.041 29.66C244.041 27.8234 243.624 26.1481 242.768 24.661L241.035 25.659C241.699 26.8119 242.041 28.1366 242.041 29.66H244.041ZM242.785 24.6921C241.982 23.1754 240.856 21.9773 239.412 21.1201L238.391 22.8399C239.507 23.5027 240.381 24.4246 241.018 25.6279L242.785 24.6921ZM239.424 21.1274C238.007 20.2591 236.382 19.84 234.581 19.84V21.84C236.061 21.84 237.315 22.1809 238.379 22.8326L239.424 21.1274ZM234.581 19.84C232.78 19.84 231.126 20.2593 229.642 21.1134L230.64 22.8466C231.797 22.1807 233.103 21.84 234.581 21.84V19.84ZM229.642 21.1134C228.162 21.9657 226.994 23.1582 226.148 24.6722L227.894 25.6478C228.568 24.4418 229.481 23.5143 230.64 22.8466L229.642 21.1134ZM226.144 24.6811C225.334 26.1646 224.941 27.8327 224.941 29.66H226.941C226.941 28.1273 227.268 26.7954 227.899 25.6389L226.144 24.6811ZM224.941 29.66C224.941 31.4873 225.334 33.1554 226.144 34.6389L227.899 33.6811C227.268 32.5246 226.941 31.1927 226.941 29.66H224.941ZM226.155 34.659C226.998 36.1242 228.14 37.29 229.571 38.1399L230.592 36.4201C229.463 35.75 228.564 34.8358 227.888 33.661L226.155 34.659ZM229.582 38.1466C231.069 39.0028 232.745 39.42 234.581 39.42V37.42C233.058 37.42 231.733 37.0772 230.58 36.4134L229.582 38.1466ZM25.8288 106.16L25.4311 107.078L25.4367 107.08L25.8288 106.16ZM19.5888 101.84L18.8509 102.515L18.8584 102.523L18.8661 102.531L19.5888 101.84ZM15.8088 95.3L15.4109 94.3825L14.5785 94.7435L14.857 95.607L15.8088 95.3ZM22.5888 92.36L23.5101 91.9713L23.1175 91.0407L22.1909 91.4425L22.5888 92.36ZM27.2688 98.42L26.6815 99.2295L26.6921 99.237L27.2688 98.42ZM37.8888 99.92L38.2784 100.841L38.2867 100.837L38.2949 100.834L37.8888 99.92ZM40.3488 98L39.5488 97.4L39.5389 97.4131L39.5295 97.4265L40.3488 98ZM40.0488 91.88L39.2919 92.5336L39.3078 92.552L39.3246 92.5697L40.0488 91.88ZM36.5688 89.84L36.2625 90.792L36.2747 90.7958L36.5688 89.84ZM27.9888 87.08L28.295 86.128L28.2852 86.1249L27.9888 87.08ZM20.1288 82.22L20.904 81.5883L20.904 81.5883L20.1288 82.22ZM19.3488 67.82L18.5115 67.2732L18.5075 67.2793L18.5037 67.2854L19.3488 67.82ZM24.6288 63.26L25.0631 64.1608L25.0697 64.1576L24.6288 63.26ZM39.8088 63.02L39.4148 63.9391L39.4218 63.9421L39.4288 63.945L39.8088 63.02ZM45.5688 66.92L44.8446 67.6097L44.853 67.6185L44.8616 67.6271L45.5688 66.92ZM49.2288 72.74L49.6364 73.6531L50.4819 73.2757L50.1705 72.4037L49.2288 72.74ZM42.5088 75.74L41.578 76.1057L41.9607 77.0798L42.9164 76.6531L42.5088 75.74ZM38.5488 70.58L37.9728 71.3975L37.9791 71.4019L37.9854 71.4062L38.5488 70.58ZM28.8288 69.44L29.2184 70.361L29.2332 70.3547L29.2478 70.348L28.8288 69.44ZM26.3688 71.36L25.555 70.7787L25.5495 70.7865L26.3688 71.36ZM26.7288 77.54L25.9605 78.1802L25.9673 78.1883L25.9741 78.1962L26.7288 77.54ZM30.3888 79.7L30.0865 80.6532L30.0893 80.6541L30.3888 79.7ZM38.6088 82.28L38.9186 81.3291L38.9082 81.3259L38.6088 82.28ZM46.5888 87.08L45.8315 87.7333L45.8389 87.7416L46.5888 87.08ZM47.3088 101.42L48.1382 101.979L48.1382 101.979L47.3088 101.42ZM41.8488 106.04L42.2835 106.941L42.2835 106.941L41.8488 106.04ZM33.7488 106.72C31.0339 106.72 28.5283 106.224 26.2208 105.24L25.4367 107.08C28.0092 108.176 30.7836 108.72 33.7488 108.72V106.72ZM26.2264 105.242C23.9453 104.254 21.9767 102.89 20.3114 101.149L18.8661 102.531C20.7208 104.47 22.9122 105.986 25.4311 107.078L26.2264 105.242ZM20.3266 101.165C18.7057 99.3933 17.5174 97.3396 16.7605 94.993L14.857 95.607C15.7001 98.2204 17.0318 100.527 18.8509 102.515L20.3266 101.165ZM16.2066 96.2175L22.9866 93.2775L22.1909 91.4425L15.4109 94.3825L16.2066 96.2175ZM21.6674 92.7487C22.8108 95.459 24.479 97.6315 26.6815 99.2294L27.856 97.6106C25.9785 96.2485 24.5267 94.381 23.5101 91.9713L21.6674 92.7487ZM26.6921 99.237C28.9053 100.799 31.4078 101.58 34.1688 101.58V99.58C31.8097 99.58 29.7122 98.9208 27.8454 97.603L26.6921 99.237ZM34.1688 101.58C35.7072 101.58 37.0862 101.345 38.2784 100.841L37.4991 98.999C36.6113 99.3747 35.5103 99.58 34.1688 99.58V101.58ZM38.2949 100.834C39.506 100.296 40.4838 99.5509 41.168 98.5735L39.5295 97.4265C39.0937 98.0491 38.4315 98.5844 37.4826 99.0062L38.2949 100.834ZM41.1488 98.6C41.894 97.6063 42.2488 96.4291 42.2488 95.12H40.2488C40.2488 96.0509 40.0035 96.7937 39.5488 97.4L41.1488 98.6ZM42.2488 95.12C42.2488 93.5815 41.7747 92.2422 40.7729 91.1903L39.3246 92.5697C39.9228 93.1978 40.2488 94.0185 40.2488 95.12H42.2488ZM40.8056 91.2264C39.8827 90.1578 38.5331 89.3981 36.8628 88.8842L36.2747 90.7958C37.7244 91.2419 38.6948 91.8422 39.2919 92.5336L40.8056 91.2264ZM36.875 88.888L28.295 86.128L27.6825 88.032L36.2625 90.792L36.875 88.888ZM28.2852 86.1249C24.9361 85.0856 22.5067 83.5552 20.904 81.5883L19.3535 82.8517C21.2708 85.2048 24.0814 86.9144 27.6924 88.0351L28.2852 86.1249ZM20.904 81.5883C19.2967 79.6158 18.4888 77.3018 18.4888 74.6H16.4888C16.4888 77.7382 17.4408 80.5042 19.3535 82.8517L20.904 81.5883ZM18.4888 74.6C18.4888 72.209 19.0654 70.1383 20.1938 68.3546L18.5037 67.2854C17.1521 69.4217 16.4888 71.871 16.4888 74.6H18.4888ZM20.186 68.3668C21.3602 66.5689 22.9765 65.1668 25.063 64.1608L24.1945 62.3592C21.801 63.5132 19.8973 65.1511 18.5115 67.2732L20.186 68.3668ZM25.0697 64.1576C27.1933 63.1144 29.6387 62.58 32.4288 62.58V60.58C29.3788 60.58 26.6242 61.1656 24.1878 62.3624L25.0697 64.1576ZM32.4288 62.58C34.9869 62.58 37.3112 63.0376 39.4148 63.9391L40.2027 62.1009C37.8263 61.0824 35.2306 60.58 32.4288 60.58V62.58ZM39.4288 63.945C41.5446 64.814 43.3458 66.0359 44.8446 67.6097L46.2929 66.2303C44.5917 64.4441 42.5529 63.066 40.1887 62.095L39.4288 63.945ZM44.8616 67.6271C46.3942 69.1597 47.5355 70.9721 48.287 73.0763L50.1705 72.4037C49.322 70.0279 48.0233 67.9603 46.2759 66.2129L44.8616 67.6271ZM48.8211 71.8269L42.1011 74.8269L42.9164 76.6531L49.6364 73.6531L48.8211 71.8269ZM43.4395 75.3743C42.4959 72.9725 41.059 71.0812 39.1121 69.7538L37.9854 71.4062C39.5585 72.4788 40.7616 74.0275 41.578 76.1057L43.4395 75.3743ZM39.1247 69.7625C37.1829 68.3944 34.9381 67.72 32.4288 67.72V69.72C34.5594 69.72 36.3946 70.2856 37.9728 71.3975L39.1247 69.7625ZM32.4288 67.72C30.9508 67.72 29.6034 67.9811 28.4097 68.532L29.2478 70.348C30.1341 69.9389 31.1867 69.72 32.4288 69.72V67.72ZM28.4391 68.519C27.2456 69.024 26.2723 69.7746 25.555 70.7788L27.1825 71.9412C27.6652 71.2654 28.3319 70.736 29.2184 70.361L28.4391 68.519ZM25.5495 70.7865C24.8552 71.7785 24.5288 72.946 24.5288 74.24H26.5288C26.5288 73.294 26.7623 72.5415 27.188 71.9335L25.5495 70.7865ZM24.5288 74.24C24.5288 75.7159 25.012 77.042 25.9605 78.1802L27.497 76.8998C26.8455 76.118 26.5288 75.2441 26.5288 74.24H24.5288ZM25.9741 78.1962C26.9346 79.3007 28.3399 80.0994 30.0865 80.6532L30.691 78.7468C29.1576 78.2606 28.1229 77.6193 27.4834 76.8838L25.9741 78.1962ZM30.0893 80.6541L38.3093 83.2341L38.9082 81.3259L30.6882 78.7459L30.0893 80.6541ZM38.2989 83.2308C41.7501 84.3553 44.2285 85.8751 45.8316 87.7332L47.3459 86.4268C45.429 84.2049 42.5874 82.5247 38.9186 81.3292L38.2989 83.2308ZM45.8389 87.7416C47.4607 89.5797 48.2888 91.8567 48.2888 94.64H50.2888C50.2888 91.4233 49.3168 88.6603 47.3386 86.4184L45.8389 87.7416ZM48.2888 94.64C48.2888 97.0183 47.6788 99.0803 46.4793 100.861L48.1382 101.979C49.5787 99.8397 50.2888 97.3817 50.2888 94.64H48.2888ZM46.4793 100.861C45.2671 102.661 43.5893 104.089 41.414 105.139L42.2835 106.941C44.7482 105.751 46.7104 104.099 48.1382 101.979L46.4793 100.861ZM41.414 105.139C39.2536 106.182 36.7073 106.72 33.7488 106.72V108.72C36.9502 108.72 39.8039 108.138 42.2835 106.941L41.414 105.139ZM55.9764 107H54.9764V108H55.9764V107ZM55.9764 74.36V73.36H54.9764V74.36H55.9764ZM63.3564 74.36H64.3564V73.36H63.3564V74.36ZM63.3564 80.78L62.4715 81.2457L64.3564 80.78H63.3564ZM62.7564 79.64L61.824 79.2785L61.6595 79.7029L61.8715 80.1057L62.7564 79.64ZM66.4764 75.2L66.979 76.0645L66.9851 76.0609L66.4764 75.2ZM78.9564 75.2L78.4643 76.0706L78.4723 76.075L78.9564 75.2ZM83.3364 79.58L82.4613 80.0641L82.4658 80.0721L83.3364 79.58ZM84.8964 107V108H85.8964V107H84.8964ZM77.0364 107H76.0364V108H77.0364V107ZM76.1964 84.14L77.0769 83.6659L77.0769 83.6659L76.1964 84.14ZM73.8564 81.74L73.3264 82.588L73.3468 82.6007L73.3678 82.6125L73.8564 81.74ZM67.0164 81.74L67.505 82.6125L67.5181 82.6052L67.5309 82.5975L67.0164 81.74ZM64.6764 84.14L65.5569 84.6141L65.5569 84.6141L64.6764 84.14ZM63.8364 107V108H64.8364V107H63.8364ZM56.9764 107V74.36H54.9764V107H56.9764ZM55.9764 75.36H63.3564V73.36H55.9764V75.36ZM62.3564 74.36V80.78H64.3564V74.36H62.3564ZM64.2413 80.3143L63.6413 79.1743L61.8715 80.1057L62.4715 81.2457L64.2413 80.3143ZM63.6888 80.0015C64.3717 78.2402 65.4668 76.9437 66.979 76.0645L65.9738 74.3355C64.046 75.4563 62.6611 77.1198 61.824 79.2785L63.6888 80.0015ZM66.9851 76.0609C68.5712 75.1237 70.4308 74.64 72.5964 74.64V72.64C70.1221 72.64 67.9017 73.1963 65.9677 74.3391L66.9851 76.0609ZM72.5964 74.64C74.8477 74.64 76.7939 75.1264 78.4644 76.0706L79.4485 74.3294C77.439 73.1936 75.1451 72.64 72.5964 72.64V74.64ZM78.4723 76.075C80.1879 77.024 81.5124 78.3485 82.4614 80.0641L84.2114 79.0959C83.0805 77.0515 81.4849 75.456 79.4405 74.325L78.4723 76.075ZM82.4658 80.0721C83.4087 81.7401 83.8964 83.7055 83.8964 86H85.8964C85.8964 83.4145 85.3442 81.0999 84.207 79.0879L82.4658 80.0721ZM83.8964 86V107H85.8964V86H83.8964ZM84.8964 106H77.0364V108H84.8964V106ZM78.0364 107V87.86H76.0364V107H78.0364ZM78.0364 87.86C78.0364 86.2904 77.7308 84.8803 77.0769 83.6659L75.3159 84.6141C75.7821 85.4797 76.0364 86.5496 76.0364 87.86H78.0364ZM77.0769 83.6659C76.4297 82.464 75.5161 81.5233 74.345 80.8675L73.3678 82.6125C74.1967 83.0767 74.8431 83.736 75.3159 84.6141L77.0769 83.6659ZM74.3864 80.892C73.2426 80.1771 71.9122 79.84 70.4364 79.84V81.84C71.6006 81.84 72.5502 82.1029 73.3264 82.588L74.3864 80.892ZM70.4364 79.84C68.9934 79.84 67.6723 80.1803 66.5019 80.8825L67.5309 82.5975C68.3606 82.0997 69.3194 81.84 70.4364 81.84V79.84ZM66.5278 80.8675C65.3567 81.5233 64.4431 82.464 63.7959 83.6659L65.5569 84.6141C66.0297 83.736 66.6761 83.0767 67.505 82.6125L66.5278 80.8675ZM63.7959 83.6659C63.1421 84.8802 62.8364 86.2904 62.8364 87.86H64.8364C64.8364 86.5496 65.0908 85.4797 65.5569 84.6141L63.7959 83.6659ZM62.8364 87.86V107H64.8364V87.86H62.8364ZM63.8364 106H55.9764V108H63.8364V106ZM98.2028 105.44L97.6863 106.296L97.6863 106.296L98.2028 105.44ZM92.3228 99.26L93.2033 98.7859L92.3228 99.26ZM92.3228 81.92L91.4512 81.4297L91.4487 81.4344L92.3228 81.92ZM98.1428 75.86L97.6303 75.0013L97.6242 75.005L98.1428 75.86ZM113.143 74.9L112.742 75.8162L112.749 75.8191L113.143 74.9ZM118.123 78.38L117.386 79.0566L117.386 79.0566L118.123 78.38ZM121.243 83.48L120.306 83.8311L120.309 83.8376L121.243 83.48ZM122.203 91.34L121.212 91.2078L121.207 91.2406L121.205 91.2735L122.203 91.34ZM121.903 92.9V93.9H122.603L122.843 93.2417L121.903 92.9ZM96.7028 92.9H95.7028V93.9H96.7028V92.9ZM96.7028 86.9V85.9H95.7028V86.9H96.7028ZM117.463 86.9L118.067 87.6969L120.437 85.9H117.463V86.9ZM113.743 89.72L112.761 89.528L112.258 92.1003L114.347 90.5169L113.743 89.72ZM113.443 84.8L112.502 85.1396L112.506 85.1511L112.511 85.1624L113.443 84.8ZM110.803 81.38L110.229 82.1992L110.236 82.2036L110.242 82.2079L110.803 81.38ZM102.043 81.38L102.573 82.228L102.582 82.2221L102.591 82.216L102.043 81.38ZM99.1028 84.98L98.1824 84.5888L98.1776 84.6004L99.1028 84.98ZM98.3828 90.68L99.3796 90.7597L99.3857 90.6843L99.3803 90.6088L98.3828 90.68ZM99.1628 96.02L98.2461 96.4196L98.2524 96.4339L98.2591 96.4481L99.1628 96.02ZM102.283 99.56L101.757 100.411L101.768 100.417L102.283 99.56ZM111.643 99.68L111.132 98.8201L111.12 98.8274L111.643 99.68ZM114.643 96.62L115.083 95.7222L114.235 95.3059L113.771 96.1297L114.643 96.62ZM121.003 99.74L121.928 100.12L122.283 99.2542L121.443 98.8422L121.003 99.74ZM118.003 103.88L118.664 104.63L118.664 104.63L118.003 103.88ZM113.143 106.7L112.803 105.76L112.796 105.762L113.143 106.7ZM107.023 106.72C103.819 106.72 101.062 105.997 98.7193 104.584L97.6863 106.296C100.383 107.923 103.507 108.72 107.023 108.72V106.72ZM98.7193 104.584C96.3532 103.157 94.5187 101.229 93.2033 98.7859L91.4423 99.7341C92.9269 102.491 95.0124 104.683 97.6863 106.296L98.7193 104.584ZM93.2033 98.7859C91.8872 96.3418 91.2228 93.6265 91.2228 90.62H89.2228C89.2228 93.9335 89.9584 96.9782 91.4423 99.7341L93.2033 98.7859ZM91.2228 90.62C91.2228 87.4862 91.8903 84.7576 93.197 82.4056L91.4487 81.4344C89.9553 84.1224 89.2228 87.1938 89.2228 90.62H91.2228ZM93.1944 82.4103C94.5526 79.9956 96.3729 78.1031 98.6614 76.715L97.6242 75.005C95.0327 76.5769 92.973 78.7244 91.4512 81.4297L93.1944 82.4103ZM98.6553 76.7187C100.972 75.3361 103.553 74.64 106.423 74.64V72.64C103.212 72.64 100.274 73.4239 97.6304 75.0013L98.6553 76.7187ZM106.423 74.64C108.875 74.64 110.973 75.0423 112.742 75.8162L113.544 73.9838C111.473 73.0777 109.091 72.64 106.423 72.64V74.64ZM112.749 75.8191C114.587 76.6069 116.128 77.687 117.386 79.0566L118.859 77.7034C117.398 76.113 115.619 74.8731 113.537 73.9809L112.749 75.8191ZM117.386 79.0566C118.658 80.44 119.631 82.029 120.306 83.8311L122.179 83.1289C121.415 81.091 120.308 79.2799 118.859 77.7034L117.386 79.0566ZM120.309 83.8376C120.981 85.5933 121.323 87.5109 121.323 89.6H123.323C123.323 87.2891 122.944 85.1267 122.177 83.1224L120.309 83.8376ZM121.323 89.6C121.323 90.1124 121.286 90.6482 121.212 91.2078L123.194 91.4722C123.279 90.8318 123.323 90.2076 123.323 89.6H121.323ZM121.205 91.2735C121.17 91.8047 121.083 92.2278 120.963 92.5583L122.843 93.2417C123.042 92.6922 123.156 92.0753 123.201 91.4065L121.205 91.2735ZM121.903 91.9H96.7028V93.9H121.903V91.9ZM97.7028 92.9V86.9H95.7028V92.9H97.7028ZM96.7028 87.9H117.463V85.9H96.7028V87.9ZM116.859 86.1031L113.139 88.9231L114.347 90.5169L118.067 87.6969L116.859 86.1031ZM114.724 89.912C115.113 87.9261 115.017 86.0884 114.375 84.4376L112.511 85.1624C112.989 86.3916 113.093 87.8339 112.761 89.528L114.724 89.912ZM114.383 84.4604C113.793 82.8263 112.783 81.5134 111.364 80.5521L110.242 82.2079C111.303 82.9266 112.052 83.8937 112.502 85.1396L114.383 84.4604ZM111.376 80.5608C109.98 79.5837 108.311 79.12 106.423 79.12V81.12C107.974 81.12 109.225 81.4963 110.229 82.1992L111.376 80.5608ZM106.423 79.12C104.602 79.12 102.949 79.5893 101.494 80.544L102.591 82.216C103.697 81.4907 104.963 81.12 106.423 81.12V79.12ZM101.513 80.532C100.034 81.4565 98.9301 82.8297 98.1825 84.5889L100.023 85.3711C100.636 83.9303 101.492 82.9035 102.573 82.228L101.513 80.532ZM98.1776 84.6004C97.463 86.3424 97.2179 88.4062 97.3854 90.7512L99.3803 90.6088C99.2278 88.4738 99.4626 86.7376 100.028 85.3596L98.1776 84.6004ZM97.386 90.6003C97.2152 92.7348 97.4896 94.684 98.2461 96.4196L100.08 95.6204C99.4761 94.236 99.2304 92.6252 99.3796 90.7597L97.386 90.6003ZM98.2591 96.4481C99.0572 98.133 100.224 99.4639 101.757 100.411L102.808 98.7092C101.621 97.9761 100.708 96.947 100.067 95.5919L98.2591 96.4481ZM101.768 100.417C103.339 101.36 105.121 101.82 107.083 101.82V99.82C105.445 99.82 104.026 99.4399 102.797 98.7025L101.768 100.417ZM107.083 101.82C109.024 101.82 110.735 101.41 112.165 100.533L111.12 98.8274C110.071 99.4705 108.742 99.82 107.083 99.82V101.82ZM112.153 100.54C113.582 99.6917 114.707 98.5451 115.514 97.1103L113.771 96.1297C113.138 97.2549 112.264 98.1483 111.132 98.8201L112.153 100.54ZM114.202 97.5178L120.562 100.638L121.443 98.8422L115.083 95.7222L114.202 97.5178ZM120.078 99.3604C119.5 100.768 118.595 102.024 117.341 103.13L118.664 104.63C120.131 103.336 121.225 101.832 121.928 100.12L120.078 99.3604ZM117.341 103.13C116.085 104.239 114.577 105.118 112.803 105.76L113.483 107.64C115.469 106.922 117.201 105.921 118.664 104.63L117.341 103.13ZM112.796 105.762C111.082 106.396 109.161 106.72 107.023 106.72V108.72C109.365 108.72 111.524 108.364 113.489 107.638L112.796 105.762ZM132.124 106.58L131.712 107.491L131.712 107.491L132.124 106.58ZM128.224 103.34L127.381 103.878L127.388 103.889L128.224 103.34ZM128.044 93.56L128.912 94.0562L128.918 94.0456L128.044 93.56ZM131.764 89.96L132.26 90.8282L132.26 90.8282L131.764 89.96ZM138.124 87.92L138.278 88.908L138.285 88.907L138.124 87.92ZM148.804 86.18H149.804V85.0039L148.643 85.193L148.804 86.18ZM148.804 92.18L148.971 93.1659L149.804 93.0244V92.18H148.804ZM139.624 93.74L139.456 92.7541L139.447 92.7557L139.624 93.74ZM136.144 95.24L135.456 94.514L135.456 94.514L136.144 95.24ZM136.264 100.76L135.635 101.537L135.655 101.554L135.676 101.569L136.264 100.76ZM143.824 100.7L144.305 101.577L144.314 101.572L143.824 100.7ZM146.764 97.76L145.899 97.2579L145.893 97.2684L145.887 97.2792L146.764 97.76ZM146.164 81.8L145.5 82.5474L145.514 82.5604L145.529 82.5727L146.164 81.8ZM137.344 81.74L137.91 82.5641L137.916 82.5604L137.344 81.74ZM134.524 85.28L134.087 86.1794L135.049 86.6469L135.451 85.6557L134.524 85.28ZM128.104 82.16L127.167 81.8113L126.85 82.6624L127.667 83.0594L128.104 82.16ZM131.104 77.72L131.778 78.459L131.779 78.458L131.104 77.72ZM136.024 74.72L135.666 73.7861L135.666 73.7861L136.024 74.72ZM149.224 75.14L148.784 76.0379L148.791 76.0414L148.798 76.0448L149.224 75.14ZM153.964 79.22L153.12 79.7569L153.127 79.7681L153.135 79.7791L153.964 79.22ZM155.704 107V108H156.704V107H155.704ZM148.264 107H147.264V108H148.264V107ZM148.264 101.42L148.193 100.423L147.264 100.489V101.42H148.264ZM149.944 101.3L150.801 101.814L151.791 100.166L149.873 100.303L149.944 101.3ZM146.944 104.84L147.565 105.623L147.573 105.617L147.581 105.61L146.944 104.84ZM142.984 107L143.292 107.951L143.304 107.947L143.315 107.943L142.984 107ZM138.064 106.72C135.893 106.72 134.06 106.358 132.536 105.669L131.712 107.491C133.548 108.322 135.675 108.72 138.064 108.72V106.72ZM132.536 105.669C131.011 104.979 129.865 104.017 129.06 102.791L127.388 103.889C128.423 105.463 129.877 106.661 131.712 107.491L132.536 105.669ZM129.067 102.802C128.259 101.538 127.844 100.069 127.844 98.36H125.844C125.844 100.411 126.348 102.262 127.381 103.878L129.067 102.802ZM127.844 98.36C127.844 96.7133 128.208 95.288 128.912 94.0561L127.176 93.0639C126.28 94.632 125.844 96.4067 125.844 98.36H127.844ZM128.918 94.0456C129.615 92.7913 130.711 91.7136 132.26 90.8282L131.268 89.0918C129.457 90.1264 128.073 91.4487 127.17 93.0744L128.918 94.0456ZM132.26 90.8282C133.805 89.9453 135.8 89.2952 138.278 88.908L137.97 86.932C135.328 87.3448 133.083 88.0547 131.268 89.0918L132.26 90.8282ZM138.285 88.907L148.965 87.167L148.643 85.193L137.963 86.933L138.285 88.907ZM147.804 86.18V92.18H149.804V86.18H147.804ZM148.636 91.1941L139.456 92.7541L139.791 94.7259L148.971 93.1659L148.636 91.1941ZM139.447 92.7557C137.787 93.0536 136.413 93.6076 135.456 94.514L136.832 95.966C137.395 95.4324 138.34 94.9863 139.801 94.7243L139.447 92.7557ZM135.456 94.514C134.474 95.4443 134.004 96.6582 134.004 98.06H136.004C136.004 97.1418 136.294 96.4757 136.832 95.966L135.456 94.514ZM134.004 98.06C134.004 99.4691 134.55 100.66 135.635 101.537L136.893 99.9828C136.297 99.5005 136.004 98.8909 136.004 98.06H134.004ZM135.676 101.569C136.755 102.354 138.051 102.72 139.504 102.72V100.72C138.397 100.72 137.533 100.446 136.852 99.9513L135.676 101.569ZM139.504 102.72C141.285 102.72 142.895 102.35 144.305 101.577L143.343 99.8232C142.272 100.41 141.003 100.72 139.504 100.72V102.72ZM144.314 101.572C145.75 100.764 146.867 99.6511 147.641 98.2408L145.887 97.2792C145.3 98.3489 144.457 99.1963 143.334 99.8284L144.314 101.572ZM147.629 98.2621C148.44 96.8646 148.844 95.3304 148.844 93.68H146.844C146.844 94.9896 146.528 96.1754 145.899 97.2579L147.629 98.2621ZM148.844 93.68V85.28H146.844V93.68H148.844ZM148.844 85.28C148.844 83.5688 148.14 82.1295 146.799 81.0273L145.529 82.5727C146.427 83.3105 146.844 84.1912 146.844 85.28H148.844ZM146.828 81.0526C145.523 79.8926 143.826 79.36 141.844 79.36V81.36C143.462 81.36 144.644 81.7874 145.5 82.5474L146.828 81.0526ZM141.844 79.36C139.969 79.36 138.268 79.8773 136.772 80.9196L137.916 82.5604C139.06 81.7627 140.359 81.36 141.844 81.36V79.36ZM136.777 80.916C135.331 81.9102 134.269 83.2482 133.597 84.9043L135.451 85.6557C135.979 84.3518 136.797 83.3298 137.91 82.564L136.777 80.916ZM134.961 84.3806L128.541 81.2606L127.667 83.0594L134.087 86.1794L134.961 84.3806ZM129.041 82.5087C129.625 80.9384 130.535 79.592 131.778 78.459L130.43 76.981C128.953 78.328 127.862 79.9416 127.167 81.8113L129.041 82.5087ZM131.779 78.458C133.081 77.2677 134.611 76.3318 136.382 75.6539L135.666 73.7861C133.676 74.5482 131.927 75.6123 130.429 76.982L131.779 78.458ZM136.382 75.6539C138.137 74.9815 140.055 74.64 142.144 74.64V72.64C139.833 72.64 137.671 73.0185 135.666 73.7861L136.382 75.6539ZM142.144 74.64C144.699 74.64 146.903 75.1161 148.784 76.0379L149.664 74.2421C147.465 73.1639 144.949 72.64 142.144 72.64V74.64ZM148.798 76.0448C150.681 76.931 152.11 78.1695 153.12 79.7569L154.808 78.6831C153.578 76.7505 151.847 75.269 149.65 74.2352L148.798 76.0448ZM153.135 79.7791C154.17 81.3148 154.704 83.1348 154.704 85.28H156.704C156.704 82.7852 156.077 80.5652 154.793 78.6609L153.135 79.7791ZM154.704 85.28V107H156.704V85.28H154.704ZM155.704 106H148.264V108H155.704V106ZM149.264 107V101.42H147.264V107H149.264ZM148.335 102.417L150.015 102.297L149.873 100.303L148.193 100.423L148.335 102.417ZM149.086 100.786C148.3 102.097 147.372 103.188 146.306 104.07L147.581 105.61C148.836 104.572 149.908 103.303 150.801 101.814L149.086 100.786ZM146.323 104.057C145.255 104.903 144.034 105.571 142.652 106.057L143.315 107.943C144.894 107.389 146.313 106.617 147.565 105.623L146.323 104.057ZM142.675 106.049C141.309 106.492 139.775 106.72 138.064 106.72V108.72C139.953 108.72 141.699 108.468 143.292 107.951L142.675 106.049ZM162.969 107H161.969V108H162.969V107ZM162.969 61.58V60.58H161.969V61.58H162.969ZM170.829 61.58H171.829V60.58H170.829V61.58ZM170.829 91.34L170.541 92.2978L171.829 92.684V91.34H170.829ZM167.829 90.44L167.105 89.7493L165.979 90.929L167.541 91.3978L167.829 90.44ZM183.189 74.36V73.36H182.761L182.465 73.6693L183.189 74.36ZM192.969 74.36L193.705 75.0362L195.244 73.36H192.969V74.36ZM180.909 87.5L180.172 86.8238L179.655 87.387L180.063 88.0335L180.909 87.5ZM193.209 107V108H195.022L194.054 106.466L193.209 107ZM184.209 107L183.363 107.534L183.657 108H184.209V107ZM173.529 90.08L173.328 89.1004L171.911 89.391L172.683 90.6138L173.529 90.08ZM178.209 89.12L178.94 89.8017L181.074 87.5113L178.008 88.1404L178.209 89.12ZM168.369 99.68L167.479 99.2239L169.1 100.362L168.369 99.68ZM170.829 94.88H171.829L169.939 94.4239L170.829 94.88ZM170.829 107V108H171.829V107H170.829ZM163.969 107V61.58H161.969V107H163.969ZM162.969 62.58H170.829V60.58H162.969V62.58ZM169.829 61.58V91.34H171.829V61.58H169.829ZM171.116 90.3822L168.116 89.4822L167.541 91.3978L170.541 92.2978L171.116 90.3822ZM168.552 91.1307L183.912 75.0507L182.465 73.6693L167.105 89.7493L168.552 91.1307ZM183.189 75.36H192.969V73.36H183.189V75.36ZM192.232 73.6838L180.172 86.8238L181.645 88.1762L193.705 75.0362L192.232 73.6838ZM180.063 88.0335L192.363 107.534L194.054 106.466L181.754 86.9665L180.063 88.0335ZM193.209 106H184.209V108H193.209V106ZM185.054 106.466L174.374 89.5462L172.683 90.6138L183.363 107.534L185.054 106.466ZM173.73 91.0596L178.41 90.0996L178.008 88.1404L173.328 89.1004L173.73 91.0596ZM177.477 88.4383L167.637 98.9983L169.1 100.362L178.94 89.8017L177.477 88.4383ZM169.259 100.136L171.719 95.3361L169.939 94.4239L167.479 99.2239L169.259 100.136ZM169.829 94.88V107H171.829V94.88H169.829ZM170.829 106H162.969V108H170.829V106ZM203.672 105.44L203.155 106.296L203.155 106.296L203.672 105.44ZM197.792 99.26L198.672 98.7859L197.792 99.26ZM197.792 81.92L196.92 81.4297L196.917 81.4344L197.792 81.92ZM203.612 75.86L203.099 75.0013L203.093 75.005L203.612 75.86ZM218.612 74.9L218.211 75.8162L218.218 75.8191L218.612 74.9ZM223.592 78.38L222.855 79.0566L222.855 79.0566L223.592 78.38ZM226.712 83.48L225.775 83.8311L225.778 83.8376L226.712 83.48ZM227.672 91.34L226.68 91.2078L226.676 91.2406L226.674 91.2735L227.672 91.34ZM227.372 92.9V93.9H228.072L228.311 93.2417L227.372 92.9ZM202.172 92.9H201.172V93.9H202.172V92.9ZM202.172 86.9V85.9H201.172V86.9H202.172ZM222.932 86.9L223.536 87.6969L225.906 85.9H222.932V86.9ZM219.212 89.72L218.23 89.528L217.727 92.1003L219.816 90.5169L219.212 89.72ZM218.912 84.8L217.971 85.1396L217.975 85.1511L217.98 85.1624L218.912 84.8ZM216.272 81.38L215.698 82.1992L215.704 82.2036L215.711 82.2079L216.272 81.38ZM207.512 81.38L208.042 82.228L208.051 82.2221L208.06 82.216L207.512 81.38ZM204.572 84.98L203.651 84.5888L203.646 84.6004L204.572 84.98ZM203.852 90.68L204.848 90.7597L204.854 90.6843L204.849 90.6088L203.852 90.68ZM204.632 96.02L203.715 96.4196L203.721 96.4339L203.728 96.4481L204.632 96.02ZM207.752 99.56L207.226 100.411L207.237 100.417L207.752 99.56ZM217.112 99.68L216.601 98.8201L216.589 98.8274L217.112 99.68ZM220.112 96.62L220.552 95.7222L219.703 95.3059L219.24 96.1297L220.112 96.62ZM226.472 99.74L227.397 100.12L227.752 99.2542L226.912 98.8422L226.472 99.74ZM223.472 103.88L224.133 104.63L224.133 104.63L223.472 103.88ZM218.612 106.7L218.271 105.76L218.265 105.762L218.612 106.7ZM212.492 106.72C209.287 106.72 206.531 105.997 204.188 104.584L203.155 106.296C205.852 107.923 208.976 108.72 212.492 108.72V106.72ZM204.188 104.584C201.822 103.157 199.987 101.229 198.672 98.7859L196.911 99.7341C198.396 102.491 200.481 104.683 203.155 106.296L204.188 104.584ZM198.672 98.7859C197.356 96.3418 196.692 93.6265 196.692 90.62H194.692C194.692 93.9335 195.427 96.9782 196.911 99.7341L198.672 98.7859ZM196.692 90.62C196.692 87.4862 197.359 84.7576 198.666 82.4056L196.917 81.4344C195.424 84.1224 194.692 87.1938 194.692 90.62H196.692ZM198.663 82.4103C200.021 79.9956 201.842 78.1031 204.13 76.715L203.093 75.005C200.501 76.5769 198.442 78.7244 196.92 81.4297L198.663 82.4103ZM204.124 76.7187C206.441 75.3361 209.022 74.64 211.892 74.64V72.64C208.681 72.64 205.742 73.4239 203.099 75.0013L204.124 76.7187ZM211.892 74.64C214.343 74.64 216.442 75.0423 218.211 75.8162L219.012 73.9838C216.941 73.0777 214.56 72.64 211.892 72.64V74.64ZM218.218 75.8191C220.056 76.6069 221.597 77.687 222.855 79.0566L224.328 77.7034C222.866 76.113 221.087 74.8731 219.005 73.9809L218.218 75.8191ZM222.855 79.0566C224.126 80.44 225.099 82.029 225.775 83.8311L227.648 83.1289C226.884 81.091 225.777 79.2799 224.328 77.7034L222.855 79.0566ZM225.778 83.8376C226.45 85.5933 226.792 87.5109 226.792 89.6H228.792C228.792 87.2891 228.413 85.1267 227.645 83.1224L225.778 83.8376ZM226.792 89.6C226.792 90.1124 226.755 90.6482 226.68 91.2078L228.663 91.4722C228.748 90.8318 228.792 90.2076 228.792 89.6H226.792ZM226.674 91.2735C226.638 91.8047 226.552 92.2278 226.432 92.5583L228.311 93.2417C228.511 92.6922 228.625 92.0753 228.669 91.4065L226.674 91.2735ZM227.372 91.9H202.172V93.9H227.372V91.9ZM203.172 92.9V86.9H201.172V92.9H203.172ZM202.172 87.9H222.932V85.9H202.172V87.9ZM222.327 86.1031L218.607 88.9231L219.816 90.5169L223.536 87.6969L222.327 86.1031ZM220.193 89.912C220.581 87.9261 220.486 86.0884 219.844 84.4376L217.98 85.1624C218.458 86.3916 218.562 87.8339 218.23 89.528L220.193 89.912ZM219.852 84.4604C219.262 82.8263 218.252 81.5134 216.832 80.5521L215.711 82.2079C216.772 82.9266 217.521 83.8937 217.971 85.1396L219.852 84.4604ZM216.845 80.5608C215.449 79.5837 213.78 79.12 211.892 79.12V81.12C213.443 81.12 214.694 81.4963 215.698 82.1992L216.845 80.5608ZM211.892 79.12C210.071 79.12 208.418 79.5893 206.963 80.544L208.06 82.216C209.165 81.4907 210.432 81.12 211.892 81.12V79.12ZM206.982 80.532C205.502 81.4565 204.399 82.8297 203.651 84.5889L205.492 85.3711C206.104 83.9303 206.961 82.9035 208.042 82.228L206.982 80.532ZM203.646 84.6004C202.932 86.3424 202.687 88.4062 202.854 90.7512L204.849 90.6088C204.697 88.4738 204.931 86.7376 205.497 85.3596L203.646 84.6004ZM202.855 90.6003C202.684 92.7348 202.958 94.684 203.715 96.4196L205.548 95.6204C204.945 94.236 204.699 92.6252 204.848 90.7597L202.855 90.6003ZM203.728 96.4481C204.526 98.133 205.693 99.4639 207.226 100.411L208.277 98.7092C207.09 97.9761 206.177 96.947 205.535 95.5919L203.728 96.4481ZM207.237 100.417C208.808 101.36 210.589 101.82 212.552 101.82V99.82C210.914 99.82 209.495 99.4399 208.266 98.7025L207.237 100.417ZM212.552 101.82C214.492 101.82 216.203 101.41 217.634 100.533L216.589 98.8274C215.54 99.4705 214.211 99.82 212.552 99.82V101.82ZM217.622 100.54C219.051 99.6917 220.176 98.5451 220.983 97.1103L219.24 96.1297C218.607 97.2549 217.733 98.1483 216.601 98.8201L217.622 100.54ZM219.671 97.5178L226.031 100.638L226.912 98.8422L220.552 95.7222L219.671 97.5178ZM225.546 99.3604C224.969 100.768 224.064 102.024 222.81 103.13L224.133 104.63C225.599 103.336 226.694 101.832 227.397 100.12L225.546 99.3604ZM222.81 103.13C221.553 104.239 220.045 105.118 218.271 105.76L218.952 107.64C220.938 106.922 222.67 105.921 224.133 104.63L222.81 103.13ZM218.265 105.762C216.55 106.396 214.63 106.72 212.492 106.72V108.72C214.833 108.72 216.993 108.364 218.958 107.638L218.265 105.762ZM233.75 107H232.75V108H233.75V107ZM233.75 74.36V73.36H232.75V74.36H233.75ZM241.13 74.36H242.13V73.36H241.13V74.36ZM241.13 81.62L240.256 82.1056L242.13 85.4791V81.62H241.13ZM240.53 80.54L239.575 80.2426L239.448 80.6514L239.656 81.0256L240.53 80.54ZM244.07 75.44L243.565 74.5769L243.555 74.5825L244.07 75.44ZM251.87 74H252.87V73H251.87V74ZM251.87 80.96V81.96H252.87V80.96H251.87ZM243.65 83.06L244.357 83.7671L244.362 83.762L244.367 83.7568L243.65 83.06ZM241.61 107V108H242.61V107H241.61ZM234.75 107V74.36H232.75V107H234.75ZM233.75 75.36H241.13V73.36H233.75V75.36ZM240.13 74.36V81.62H242.13V74.36H240.13ZM242.004 81.1344L241.404 80.0544L239.656 81.0256L240.256 82.1056L242.004 81.1344ZM241.485 80.8374C242.199 78.5446 243.262 77.091 244.584 76.2975L243.555 74.5825C241.678 75.709 240.381 77.6554 239.575 80.2426L241.485 80.8374ZM244.575 76.303C246.034 75.4491 247.812 75 249.95 75V73C247.528 73 245.386 73.5109 243.565 74.577L244.575 76.303ZM249.95 75H251.87V73H249.95V75ZM250.87 74V80.96H252.87V74H250.87ZM251.87 79.96H249.05V81.96H251.87V79.96ZM249.05 79.96C246.583 79.96 244.509 80.7402 242.933 82.3632L244.367 83.7568C245.511 82.5797 247.037 81.96 249.05 81.96V79.96ZM242.943 82.3529C241.345 83.9504 240.61 86.155 240.61 88.82H242.61C242.61 86.525 243.234 84.8896 244.357 83.7671L242.943 82.3529ZM240.61 88.82V107H242.61V88.82H240.61ZM241.61 106H233.75V108H241.61V106Z" fill="black" mask="url(#path-1-outside-1_456_3365)"/>
</svg>
