<svg width="230" height="50" viewBox="0 0 146 27" fill="none" xmlns="http://www.w3.org/2000/svg">
<path d="M1.3 27C0.966667 27 0.8 26.8333 0.8 26.5V22.74C0.8 22.5667 0.806667 22.4267 0.82 22.32C0.846667 22.2133 0.926667 22.1267 1.06 22.06L6.3 19.66V16.1L1.14 12.9C0.913333 12.7667 0.8 12.5667 0.8 12.3V4.96C0.8 4.74667 0.813333 4.59333 0.84 4.5C0.866667 4.39333 0.966667 4.28 1.14 4.16L6.4 0.599999C6.53333 0.519998 6.65333 0.459998 6.76 0.419998C6.88 0.366665 7.02667 0.339999 7.2 0.339999H12.6C12.9333 0.339999 13.1 0.506665 13.1 0.839998V4.24C13.1 4.53333 13 4.73333 12.8 4.84L7.56 7V10.7L12.8 13.7C13 13.7933 13.1 14.0067 13.1 14.34V23.04C13.1 23.1467 13.08 23.26 13.04 23.38C13.0133 23.5 12.9467 23.5867 12.84 23.64L6.56 26.76C6.48 26.8 6.38 26.8533 6.26 26.92C6.15333 26.9733 6.04667 27 5.94 27H1.3ZM17.7984 27C17.4651 27 17.2984 26.8333 17.2984 26.5V5.5C17.2984 5.16667 17.4651 5 17.7984 5H28.4984C28.8051 5 29.0718 5.11333 29.2984 5.34L33.2984 9.34C33.5251 9.55333 33.6384 9.82 33.6384 10.14V26.5C33.6384 26.8333 33.4718 27 33.1384 27H27.7984C27.4651 27 27.2984 26.8333 27.2984 26.5V10.94C27.2984 10.3133 26.9851 10 26.3584 10H23.6384V26.5C23.6384 26.8333 23.4718 27 23.1384 27H17.7984ZM47.2741 27C47.1407 27 46.9941 26.98 46.8341 26.94C46.6874 26.9 46.5474 26.8667 46.4141 26.84L42.8541 25.96L38.7741 24.6C38.3741 24.4667 38.1741 24.08 38.1741 23.44V10.14C38.1741 9.82 38.2874 9.55333 38.5141 9.34L42.5141 5.34C42.7407 5.11333 43.0074 5 43.3141 5H49.7141C50.0207 5 50.2874 5.11333 50.5141 5.34L54.5141 9.34C54.7407 9.55333 54.8541 9.82 54.8541 10.14V18.34H44.1141L43.9741 21L46.8141 21.94L51.9141 22.3C52.1407 22.34 52.2541 22.4933 52.2541 22.76V26.5C52.2541 26.8333 52.0874 27 51.7541 27H47.2741ZM46.4741 15.2H46.8541C47.5074 15.2 48.0274 14.9533 48.4141 14.46C48.8141 13.9667 49.0141 13.3 49.0141 12.46V12.06C49.0141 11.2333 48.8141 10.5733 48.4141 10.08C48.0274 9.58667 47.5074 9.34 46.8541 9.34H46.4541C45.8141 9.34 45.3007 9.58667 44.9141 10.08C44.5407 10.5733 44.3541 11.2333 44.3541 12.06V12.46C44.3541 13.3 44.5407 13.9667 44.9141 14.46C45.3007 14.9533 45.8207 15.2 46.4741 15.2ZM64.0172 27C63.7105 27 63.4439 26.8867 63.2172 26.66L59.2172 22.66C58.9905 22.4467 58.8772 22.18 58.8772 21.86V10.14C58.8772 9.82 58.9905 9.55333 59.2172 9.34L63.2172 5.34C63.4439 5.11333 63.7105 5 64.0172 5H74.7172C75.0505 5 75.2172 5.16667 75.2172 5.5V26.5C75.2172 26.8333 75.0505 27 74.7172 27H70.5572C70.3839 27 70.2505 26.9667 70.1572 26.9C70.0772 26.8333 69.9839 26.7533 69.8772 26.66L68.8772 25.66L67.8772 26.66C67.6639 26.8867 67.3972 27 67.0772 27H64.0172ZM66.3572 22.34H67.7572C68.1839 22.34 68.4772 22.2533 68.6372 22.08C68.7972 21.9067 68.8772 21.6 68.8772 21.16V9.66H66.3572C65.9172 9.66 65.6172 9.74667 65.4572 9.92C65.2972 10.0933 65.2172 10.4 65.2172 10.84V21.16C65.2172 21.6 65.2972 21.9067 65.4572 22.08C65.6172 22.2533 65.9172 22.34 66.3572 22.34ZM90.9766 27C90.8032 27 90.6632 26.9733 90.5566 26.92C90.4632 26.8667 90.4032 26.7933 90.3766 26.7L88.0766 17.64H86.2166V12.84H88.0766L90.3766 5.34C90.4032 5.23333 90.4632 5.16 90.5566 5.12C90.6632 5.06667 90.8032 5.04 90.9766 5.04H96.0366C96.3699 5.04 96.5366 5.20667 96.5366 5.54V7.66C96.5366 7.84667 96.5232 7.99333 96.4966 8.1C96.4699 8.20667 96.4299 8.32 96.3766 8.44L93.4166 15.26V15.94L96.5366 23.6C96.6032 23.7467 96.6499 23.88 96.6766 24C96.7032 24.1067 96.7166 24.2267 96.7166 24.36V26.5C96.7166 26.8333 96.5499 27 96.2166 27H90.9766ZM80.3766 27C80.0432 27 79.8766 26.8333 79.8766 26.5V0.839998C79.8766 0.506665 80.0432 0.339999 80.3766 0.339999H85.7166C86.0499 0.339999 86.2166 0.506665 86.2166 0.839998V26.5C86.2166 26.8333 86.0499 27 85.7166 27H80.3766ZM109.266 27C109.133 27 108.986 26.98 108.826 26.94C108.68 26.9 108.54 26.8667 108.406 26.84L104.846 25.96L100.766 24.6C100.366 24.4667 100.166 24.08 100.166 23.44V10.14C100.166 9.82 100.28 9.55333 100.506 9.34L104.506 5.34C104.733 5.11333 105 5 105.306 5H111.706C112.013 5 112.28 5.11333 112.506 5.34L116.506 9.34C116.733 9.55333 116.846 9.82 116.846 10.14V18.34H106.106L105.966 21L108.806 21.94L113.906 22.3C114.133 22.34 114.246 22.4933 114.246 22.76V26.5C114.246 26.8333 114.08 27 113.746 27H109.266ZM108.466 15.2H108.846C109.5 15.2 110.02 14.9533 110.406 14.46C110.806 13.9667 111.006 13.3 111.006 12.46V12.06C111.006 11.2333 110.806 10.5733 110.406 10.08C110.02 9.58667 109.5 9.34 108.846 9.34H108.446C107.806 9.34 107.293 9.58667 106.906 10.08C106.533 10.5733 106.346 11.2333 106.346 12.06V12.46C106.346 13.3 106.533 13.9667 106.906 14.46C107.293 14.9533 107.813 15.2 108.466 15.2ZM121.509 27C121.176 27 121.009 26.8333 121.009 26.5V5.5C121.009 5.16667 121.176 5 121.509 5H124.549C124.803 5 125.023 5.11333 125.209 5.34L127.169 7.6L129.349 5.24C129.496 5.08 129.683 5 129.909 5H132.069C132.403 5 132.569 5.16667 132.569 5.5V9.8C132.569 10.0133 132.556 10.16 132.529 10.24C132.503 10.3067 132.429 10.38 132.309 10.46L127.349 14.12V26.5C127.349 26.8333 127.183 27 126.849 27H121.509ZM134.835 27C134.501 27 134.335 26.8333 134.335 26.5V23.26C134.335 22.9533 134.435 22.7533 134.635 22.66L138.715 20.24V18.16L134.635 15.96C134.435 15.84 134.335 15.6333 134.335 15.34V8.96C134.335 8.81333 134.355 8.69333 134.395 8.6C134.448 8.50667 134.521 8.42667 134.615 8.36L138.875 5.24C139.021 5.13333 139.141 5.06667 139.235 5.04C139.328 5.01333 139.421 5 139.515 5H144.375C144.708 5 144.875 5.16667 144.875 5.5V8.64C144.875 8.86667 144.855 9.02 144.815 9.1C144.788 9.18 144.721 9.24667 144.615 9.3L140.835 11.34V13.66L144.875 15.66C145.101 15.7533 145.215 15.9533 145.215 16.26V22.4C145.215 22.7333 145.101 23 144.875 23.2L140.615 26.74C140.401 26.9133 140.135 27 139.815 27H134.835Z" fill="#128B9E"/>
</svg>
