<svg width="135" height="40" viewBox="0 0 135 40" fill="none" xmlns="http://www.w3.org/2000/svg">
<path d="M1.45 40C0.95 40 0.7 39.75 0.7 39.25V33.61C0.7 33.35 0.71 33.14 0.73 32.98C0.77 32.82 0.89 32.69 1.09 32.59L8.95 28.99V23.65L1.21 18.85C0.87 18.65 0.7 18.35 0.7 17.95V6.94C0.7 6.62 0.72 6.39 0.76 6.25C0.8 6.09 0.95 5.92 1.21 5.74L9.1 0.399998C9.3 0.279998 9.48 0.189997 9.64 0.129997C9.82 0.0499976 10.04 0.00999808 10.3 0.00999808H18.4C18.9 0.00999808 19.15 0.259998 19.15 0.759997V5.86C19.15 6.3 19 6.6 18.7 6.76L10.84 10V15.55L18.7 20.05C19 20.19 19.15 20.51 19.15 21.01V34.06C19.15 34.22 19.12 34.39 19.06 34.57C19.02 34.75 18.92 34.88 18.76 34.96L9.34 39.64C9.22 39.7 9.07 39.78 8.89 39.88C8.73 39.96 8.57 40 8.41 40H1.45ZM26.1977 40C25.6977 40 25.4477 39.75 25.4477 39.25V0.759997C25.4477 0.259998 25.6977 0.00999808 26.1977 0.00999808H34.2077C34.7077 0.00999808 34.9577 0.259998 34.9577 0.759997V7H42.2477C42.7077 7 43.1077 7.17 43.4477 7.51L49.4477 13.51C49.7877 13.83 49.9577 14.23 49.9577 14.71V39.25C49.9577 39.75 49.7077 40 49.2077 40H41.1977C40.6977 40 40.4477 39.75 40.4477 39.25V15.76C40.4477 14.92 40.0277 14.5 39.1877 14.5H34.9577V39.25C34.9577 39.75 34.7077 40 34.2077 40H26.1977ZM64.4711 40C64.0111 40 63.6111 39.83 63.2711 39.49L57.2711 33.49C56.9311 33.17 56.7611 32.77 56.7611 32.29V14.71C56.7611 14.23 56.9311 13.83 57.2711 13.51L63.2711 7.51C63.6111 7.17 64.0111 7 64.4711 7H73.5611C74.0411 7 74.4411 7.17 74.7611 7.51L80.7611 13.51C81.1011 13.83 81.2711 14.23 81.2711 14.71V32.29C81.2711 32.77 81.1011 33.17 80.7611 33.49L74.7611 39.49C74.4411 39.83 74.0411 40 73.5611 40H64.4711ZM67.9811 33.01H70.0811C70.7211 33.01 71.1611 32.88 71.4011 32.62C71.6411 32.36 71.7611 31.9 71.7611 31.24V15.76C71.7611 15.1 71.6411 14.64 71.4011 14.38C71.1611 14.12 70.7211 13.99 70.0811 13.99H67.9811C67.3211 13.99 66.8711 14.12 66.6311 14.38C66.3911 14.64 66.2711 15.1 66.2711 15.76V31.24C66.2711 31.9 66.3911 32.36 66.6311 32.62C66.8711 32.88 67.3211 33.01 67.9811 33.01ZM101.7 40C101.5 40 101.28 39.97 101.04 39.91C100.82 39.85 100.61 39.8 100.41 39.76L95.0702 38.44L88.9502 36.4C88.3502 36.2 88.0502 35.62 88.0502 34.66V14.71C88.0502 14.23 88.2202 13.83 88.5602 13.51L94.5602 7.51C94.9002 7.17 95.3002 7 95.7602 7H105.36C105.82 7 106.22 7.17 106.56 7.51L112.56 13.51C112.9 13.83 113.07 14.23 113.07 14.71V27.01H96.9602L96.7502 31L101.01 32.41L108.66 32.95C109 33.01 109.17 33.24 109.17 33.64V39.25C109.17 39.75 108.92 40 108.42 40H101.7ZM100.5 22.3H101.07C102.05 22.3 102.83 21.93 103.41 21.19C104.01 20.45 104.31 19.45 104.31 18.19V17.59C104.31 16.35 104.01 15.36 103.41 14.62C102.83 13.88 102.05 13.51 101.07 13.51H100.47C99.5102 13.51 98.7402 13.88 98.1602 14.62C97.6002 15.36 97.3202 16.35 97.3202 17.59V18.19C97.3202 19.45 97.6002 20.45 98.1602 21.19C98.7402 21.93 99.5202 22.3 100.5 22.3ZM119.135 40C118.635 40 118.385 39.75 118.385 39.25V34.39C118.385 33.93 118.535 33.63 118.835 33.49L124.955 29.86V26.74L118.835 23.44C118.535 23.26 118.385 22.95 118.385 22.51V12.94C118.385 12.72 118.415 12.54 118.475 12.4C118.555 12.26 118.665 12.14 118.805 12.04L125.195 7.36C125.415 7.2 125.595 7.1 125.735 7.06C125.875 7.02 126.015 7 126.155 7H133.445C133.945 7 134.195 7.25 134.195 7.75V12.46C134.195 12.8 134.165 13.03 134.105 13.15C134.065 13.27 133.965 13.37 133.805 13.45L128.135 16.51V19.99L134.195 22.99C134.535 23.13 134.705 23.43 134.705 23.89V33.1C134.705 33.6 134.535 34 134.195 34.3L127.805 39.61C127.485 39.87 127.085 40 126.605 40H119.135Z" fill="#128B9E"/>
</svg>
