<svg width="135" height="40" viewBox="0 0 135 40" fill="none" xmlns="http://www.w3.org/2000/svg">
<path d="M1.25273 40C0.752734 40 0.502734 39.75 0.502734 39.25V33.61C0.502734 33.35 0.512735 33.14 0.532735 32.98C0.572734 32.82 0.692734 32.69 0.892735 32.59L8.75273 28.99V23.65L1.01273 18.85C0.672735 18.65 0.502734 18.35 0.502734 17.95V6.94C0.502734 6.62 0.522735 6.39 0.562735 6.25C0.602735 6.09 0.752735 5.92 1.01273 5.74L8.90273 0.399998C9.10273 0.279998 9.28273 0.189997 9.44273 0.129997C9.62273 0.0499976 9.84273 0.00999808 10.1027 0.00999808H18.2027C18.7027 0.00999808 18.9527 0.259998 18.9527 0.759997V5.86C18.9527 6.3 18.8027 6.6 18.5027 6.76L10.6427 10V15.55L18.5027 20.05C18.8027 20.19 18.9527 20.51 18.9527 21.01V34.06C18.9527 34.22 18.9227 34.39 18.8627 34.57C18.8227 34.75 18.7227 34.88 18.5627 34.96L9.14274 39.64C9.02273 39.7 8.87273 39.78 8.69273 39.88C8.53273 39.96 8.37273 40 8.21273 40H1.25273ZM26.0004 40C25.5004 40 25.2504 39.75 25.2504 39.25V0.759997C25.2504 0.259998 25.5004 0.00999808 26.0004 0.00999808H34.0104C34.5104 0.00999808 34.7604 0.259998 34.7604 0.759997V7H42.0504C42.5104 7 42.9104 7.17 43.2504 7.51L49.2504 13.51C49.5904 13.83 49.7604 14.23 49.7604 14.71V39.25C49.7604 39.75 49.5104 40 49.0104 40H41.0004C40.5004 40 40.2504 39.75 40.2504 39.25V15.76C40.2504 14.92 39.8304 14.5 38.9904 14.5H34.7604V39.25C34.7604 39.75 34.5104 40 34.0104 40H26.0004ZM64.2738 40C63.8138 40 63.4138 39.83 63.0738 39.49L57.0738 33.49C56.7338 33.17 56.5638 32.77 56.5638 32.29V14.71C56.5638 14.23 56.7338 13.83 57.0738 13.51L63.0738 7.51C63.4138 7.17 63.8138 7 64.2738 7H73.3638C73.8438 7 74.2438 7.17 74.5638 7.51L80.5638 13.51C80.9038 13.83 81.0738 14.23 81.0738 14.71V32.29C81.0738 32.77 80.9038 33.17 80.5638 33.49L74.5638 39.49C74.2438 39.83 73.8438 40 73.3638 40H64.2738ZM67.7838 33.01H69.8838C70.5238 33.01 70.9638 32.88 71.2038 32.62C71.4438 32.36 71.5638 31.9 71.5638 31.24V15.76C71.5638 15.1 71.4438 14.64 71.2038 14.38C70.9638 14.12 70.5238 13.99 69.8838 13.99H67.7838C67.1238 13.99 66.6738 14.12 66.4338 14.38C66.1938 14.64 66.0738 15.1 66.0738 15.76V31.24C66.0738 31.9 66.1938 32.36 66.4338 32.62C66.6738 32.88 67.1238 33.01 67.7838 33.01ZM101.503 40C101.303 40 101.083 39.97 100.843 39.91C100.623 39.85 100.413 39.8 100.213 39.76L94.8729 38.44L88.7529 36.4C88.1529 36.2 87.8529 35.62 87.8529 34.66V14.71C87.8529 14.23 88.0229 13.83 88.3629 13.51L94.3629 7.51C94.7029 7.17 95.1029 7 95.5629 7H105.163C105.623 7 106.023 7.17 106.363 7.51L112.363 13.51C112.703 13.83 112.873 14.23 112.873 14.71V27.01H96.7629L96.5529 31L100.813 32.41L108.463 32.95C108.803 33.01 108.973 33.24 108.973 33.64V39.25C108.973 39.75 108.723 40 108.223 40H101.503ZM100.303 22.3H100.873C101.853 22.3 102.633 21.93 103.213 21.19C103.813 20.45 104.113 19.45 104.113 18.19V17.59C104.113 16.35 103.813 15.36 103.213 14.62C102.633 13.88 101.853 13.51 100.873 13.51H100.273C99.3129 13.51 98.5429 13.88 97.9629 14.62C97.4029 15.36 97.1229 16.35 97.1229 17.59V18.19C97.1229 19.45 97.4029 20.45 97.9629 21.19C98.5429 21.93 99.3229 22.3 100.303 22.3ZM118.938 40C118.438 40 118.188 39.75 118.188 39.25V34.39C118.188 33.93 118.338 33.63 118.638 33.49L124.758 29.86V26.74L118.638 23.44C118.338 23.26 118.188 22.95 118.188 22.51V12.94C118.188 12.72 118.218 12.54 118.278 12.4C118.358 12.26 118.468 12.14 118.608 12.04L124.998 7.36C125.218 7.2 125.398 7.1 125.538 7.06C125.678 7.02 125.818 7 125.958 7H133.248C133.748 7 133.998 7.25 133.998 7.75V12.46C133.998 12.8 133.968 13.03 133.908 13.15C133.868 13.27 133.768 13.37 133.608 13.45L127.938 16.51V19.99L133.998 22.99C134.338 23.13 134.508 23.43 134.508 23.89V33.1C134.508 33.6 134.338 34 133.998 34.3L127.608 39.61C127.288 39.87 126.888 40 126.408 40H118.938Z" fill="black"/>
</svg>
