<svg width="548" height="231" viewBox="0 0 548 231" fill="none" xmlns="http://www.w3.org/2000/svg">
<path d="M6.25356 97V0.149992H20.0336L73.3336 71.91L66.1836 73.34V0.149992H83.8636V97H69.9536L17.4336 24.72L23.9336 23.29V97H6.25356ZM102.611 97V0.149992H120.291V97H102.611ZM138.92 97V0.149992H156.6V50.59L151.79 48.9L193 0.149992H215.23L176.62 45.91L177.66 33.43L216.4 97H195.6L169.6 54.36L156.6 69.83V97H138.92ZM227.152 97V0.149992H291.502V15.75H244.832V40.58H288.902V56.18H244.832V81.4H291.502V97H227.152Z" fill="black"/>
<mask id="path-2-outside-1_0_1" maskUnits="userSpaceOnUse" x="0" y="143" width="548" height="88" fill="black">
<rect fill="white" y="143" width="548" height="88"/>
<path d="M34.4114 229.32C29.2048 229.32 24.3648 228.367 19.8914 226.46C15.4914 224.553 11.6781 221.913 8.45145 218.54C5.29811 215.093 2.98811 211.097 1.52145 206.55L13.9514 201.16C15.9314 205.853 18.7914 209.557 22.5314 212.27C26.2714 214.91 30.4881 216.23 35.1814 216.23C37.8214 216.23 40.0948 215.827 42.0014 215.02C43.9814 214.14 45.4848 212.967 46.5114 211.5C47.6114 210.033 48.1614 208.273 48.1614 206.22C48.1614 203.8 47.4281 201.82 45.9614 200.28C44.5681 198.667 42.4414 197.42 39.5814 196.54L23.8514 191.48C17.4714 189.5 12.6681 186.53 9.44145 182.57C6.21478 178.61 4.60145 173.953 4.60145 168.6C4.60145 163.907 5.73811 159.763 8.01145 156.17C10.3581 152.577 13.5848 149.79 17.6914 147.81C21.8714 145.757 26.6381 144.73 31.9914 144.73C36.9048 144.73 41.4148 145.61 45.5214 147.37C49.6281 149.057 53.1481 151.44 56.0814 154.52C59.0881 157.527 61.3248 161.083 62.7914 165.19L50.4714 170.69C48.8581 166.583 46.4381 163.43 43.2114 161.23C39.9848 158.957 36.2448 157.82 31.9914 157.82C29.4981 157.82 27.2981 158.26 25.3914 159.14C23.4848 159.947 21.9814 161.12 20.8814 162.66C19.8548 164.127 19.3414 165.887 19.3414 167.94C19.3414 170.213 20.0748 172.23 21.5414 173.99C23.0081 175.677 25.2448 176.997 28.2514 177.95L43.3214 182.68C49.8481 184.807 54.7248 187.74 57.9515 191.48C61.2514 195.22 62.9014 199.84 62.9014 205.34C62.9014 210.033 61.6914 214.177 59.2714 217.77C56.8514 221.363 53.5148 224.187 49.2614 226.24C45.0081 228.293 40.0581 229.32 34.4114 229.32ZM90.5879 228L68.5879 146.05H84.6479L101.918 215.9H97.7379L115.778 146.05H131.288L149.218 215.9H145.038L162.308 146.05H178.368L156.368 228H139.208L121.058 160.02H125.898L107.748 228H90.5879ZM176.332 228L204.602 146.05H223.962L252.232 228H235.952L230.122 210.4H198.442L192.502 228H176.332ZM202.732 197.2H225.832L212.192 156.39H216.372L202.732 197.2ZM261.353 228V146.05H273.013L318.113 206.77L312.063 207.98V146.05H327.023V228H315.253L270.813 166.84L276.313 165.63V228H261.353ZM342.886 228V146.05H357.846V188.73L353.776 187.3L388.646 146.05H407.456L374.786 184.77L375.666 174.21L408.446 228H390.846L368.846 191.92L357.846 205.01V228H342.886ZM417.544 228V146.05H471.994V159.25H432.504V180.26H469.794V193.46H432.504V214.8H471.994V228H417.544ZM482.964 228V146.05H513.434C519.007 146.05 523.921 147.077 528.174 149.13C532.501 151.11 535.874 154.043 538.294 157.93C540.714 161.743 541.924 166.4 541.924 171.9C541.924 177.547 540.567 182.35 537.854 186.31C535.214 190.27 531.621 193.203 527.074 195.11L545.884 228H528.944L508.814 192.03L518.494 197.75H497.924V228H482.964ZM497.924 184.55H513.654C516.367 184.55 518.714 184.037 520.694 183.01C522.674 181.91 524.214 180.407 525.314 178.5C526.414 176.593 526.964 174.393 526.964 171.9C526.964 169.333 526.414 167.133 525.314 165.3C524.214 163.393 522.674 161.927 520.694 160.9C518.714 159.8 516.367 159.25 513.654 159.25H497.924V184.55Z"/>
</mask>
<path d="M34.4114 229.32C29.2048 229.32 24.3648 228.367 19.8914 226.46C15.4914 224.553 11.6781 221.913 8.45145 218.54C5.29811 215.093 2.98811 211.097 1.52145 206.55L13.9514 201.16C15.9314 205.853 18.7914 209.557 22.5314 212.27C26.2714 214.91 30.4881 216.23 35.1814 216.23C37.8214 216.23 40.0948 215.827 42.0014 215.02C43.9814 214.14 45.4848 212.967 46.5114 211.5C47.6114 210.033 48.1614 208.273 48.1614 206.22C48.1614 203.8 47.4281 201.82 45.9614 200.28C44.5681 198.667 42.4414 197.42 39.5814 196.54L23.8514 191.48C17.4714 189.5 12.6681 186.53 9.44145 182.57C6.21478 178.61 4.60145 173.953 4.60145 168.6C4.60145 163.907 5.73811 159.763 8.01145 156.17C10.3581 152.577 13.5848 149.79 17.6914 147.81C21.8714 145.757 26.6381 144.73 31.9914 144.73C36.9048 144.73 41.4148 145.61 45.5214 147.37C49.6281 149.057 53.1481 151.44 56.0814 154.52C59.0881 157.527 61.3248 161.083 62.7914 165.19L50.4714 170.69C48.8581 166.583 46.4381 163.43 43.2114 161.23C39.9848 158.957 36.2448 157.82 31.9914 157.82C29.4981 157.82 27.2981 158.26 25.3914 159.14C23.4848 159.947 21.9814 161.12 20.8814 162.66C19.8548 164.127 19.3414 165.887 19.3414 167.94C19.3414 170.213 20.0748 172.23 21.5414 173.99C23.0081 175.677 25.2448 176.997 28.2514 177.95L43.3214 182.68C49.8481 184.807 54.7248 187.74 57.9515 191.48C61.2514 195.22 62.9014 199.84 62.9014 205.34C62.9014 210.033 61.6914 214.177 59.2714 217.77C56.8514 221.363 53.5148 224.187 49.2614 226.24C45.0081 228.293 40.0581 229.32 34.4114 229.32ZM90.5879 228L68.5879 146.05H84.6479L101.918 215.9H97.7379L115.778 146.05H131.288L149.218 215.9H145.038L162.308 146.05H178.368L156.368 228H139.208L121.058 160.02H125.898L107.748 228H90.5879ZM176.332 228L204.602 146.05H223.962L252.232 228H235.952L230.122 210.4H198.442L192.502 228H176.332ZM202.732 197.2H225.832L212.192 156.39H216.372L202.732 197.2ZM261.353 228V146.05H273.013L318.113 206.77L312.063 207.98V146.05H327.023V228H315.253L270.813 166.84L276.313 165.63V228H261.353ZM342.886 228V146.05H357.846V188.73L353.776 187.3L388.646 146.05H407.456L374.786 184.77L375.666 174.21L408.446 228H390.846L368.846 191.92L357.846 205.01V228H342.886ZM417.544 228V146.05H471.994V159.25H432.504V180.26H469.794V193.46H432.504V214.8H471.994V228H417.544ZM482.964 228V146.05H513.434C519.007 146.05 523.921 147.077 528.174 149.13C532.501 151.11 535.874 154.043 538.294 157.93C540.714 161.743 541.924 166.4 541.924 171.9C541.924 177.547 540.567 182.35 537.854 186.31C535.214 190.27 531.621 193.203 527.074 195.11L545.884 228H528.944L508.814 192.03L518.494 197.75H497.924V228H482.964ZM497.924 184.55H513.654C516.367 184.55 518.714 184.037 520.694 183.01C522.674 181.91 524.214 180.407 525.314 178.5C526.414 176.593 526.964 174.393 526.964 171.9C526.964 169.333 526.414 167.133 525.314 165.3C524.214 163.393 522.674 161.927 520.694 160.9C518.714 159.8 516.367 159.25 513.654 159.25H497.924V184.55Z" fill="white"/>
<path d="M19.8914 226.46L19.4938 227.378L19.4994 227.38L19.8914 226.46ZM8.45145 218.54L7.71364 219.215L7.72113 219.223L7.72881 219.231L8.45145 218.54ZM1.52145 206.55L1.12361 205.633L0.291187 205.994L0.569736 206.857L1.52145 206.55ZM13.9514 201.16L14.8728 200.771L14.4802 199.841L13.5536 200.243L13.9514 201.16ZM22.5314 212.27L21.9442 213.079L21.9548 213.087L22.5314 212.27ZM42.0014 215.02L42.3911 215.941L42.3994 215.937L42.4076 215.934L42.0014 215.02ZM46.5114 211.5L45.7114 210.9L45.7016 210.913L45.6922 210.927L46.5114 211.5ZM45.9614 200.28L45.2046 200.934L45.2205 200.952L45.2373 200.97L45.9614 200.28ZM39.5814 196.54L39.2752 197.492L39.2874 197.496L39.5814 196.54ZM23.8514 191.48L24.1577 190.528L24.1478 190.525L23.8514 191.48ZM9.44144 182.57L10.2167 181.938L9.44144 182.57ZM8.01144 156.17L7.17418 155.623L7.17023 155.629L7.16637 155.635L8.01144 156.17ZM17.6914 147.81L18.1258 148.711L18.1323 148.708L17.6914 147.81ZM45.5214 147.37L45.1275 148.289L45.1345 148.292L45.1415 148.295L45.5214 147.37ZM56.0815 154.52L55.3573 155.21L55.3657 155.218L55.3743 155.227L56.0815 154.52ZM62.7915 165.19L63.1991 166.103L64.0446 165.726L63.7332 164.854L62.7915 165.19ZM50.4715 170.69L49.5407 171.056L49.9234 172.03L50.8791 171.603L50.4715 170.69ZM43.2114 161.23L42.6355 162.047L42.6418 162.052L42.6481 162.056L43.2114 161.23ZM25.3914 159.14L25.7811 160.061L25.7959 160.055L25.8105 160.048L25.3914 159.14ZM20.8814 162.66L20.0677 162.079L20.0622 162.087L20.8814 162.66ZM21.5415 173.99L20.7732 174.63L20.78 174.638L20.7868 174.646L21.5415 173.99ZM28.2514 177.95L27.9492 178.903L27.952 178.904L28.2514 177.95ZM43.3214 182.68L43.6313 181.729L43.6209 181.726L43.3214 182.68ZM57.9514 191.48L57.1942 192.133L57.2016 192.142L57.9514 191.48ZM59.2714 217.77L60.1009 218.329L59.2714 217.77ZM49.2614 226.24L49.6962 227.141L49.2614 226.24ZM34.4114 228.32C29.3299 228.32 24.6243 227.39 20.2835 225.54L19.4994 227.38C24.1052 229.343 29.0797 230.32 34.4114 230.32V228.32ZM20.2891 225.542C16.008 223.687 12.306 221.123 9.17409 217.849L7.72881 219.231C11.0502 222.704 14.9749 225.419 19.4938 227.378L20.2891 225.542ZM9.18925 217.865C6.13504 214.527 3.89679 210.656 2.47315 206.243L0.569736 206.857C2.07944 211.537 4.46119 215.66 7.71364 219.215L9.18925 217.865ZM1.91928 207.467L14.3493 202.077L13.5536 200.243L1.12361 205.633L1.91928 207.467ZM13.0301 201.549C15.0735 206.392 18.0417 210.248 21.9442 213.079L23.1187 211.461C19.5412 208.865 16.7894 205.314 14.8728 200.771L13.0301 201.549ZM21.9548 213.087C25.868 215.849 30.2872 217.23 35.1814 217.23V215.23C30.6891 215.23 26.6749 213.971 23.1081 211.453L21.9548 213.087ZM35.1814 217.23C37.9199 217.23 40.3323 216.812 42.3911 215.941L41.6118 214.099C39.8573 214.841 37.723 215.23 35.1814 215.23V217.23ZM42.4076 215.934C44.5187 214.996 46.1798 213.718 47.3307 212.073L45.6922 210.927C44.7897 212.216 43.4442 213.284 41.5953 214.106L42.4076 215.934ZM47.3114 212.1C48.5567 210.44 49.1614 208.462 49.1614 206.22H47.1614C47.1614 208.084 46.6662 209.627 45.7114 210.9L47.3114 212.1ZM49.1614 206.22C49.1614 203.581 48.3541 201.342 46.6856 199.59L45.2373 200.97C46.5022 202.298 47.1614 204.019 47.1614 206.22H49.1614ZM46.7183 199.626C45.1621 197.824 42.8458 196.498 39.8755 195.584L39.2874 197.496C42.0371 198.342 43.9742 199.509 45.2046 200.934L46.7183 199.626ZM39.8877 195.588L24.1577 190.528L23.5452 192.432L39.2752 197.492L39.8877 195.588ZM24.1478 190.525C17.8988 188.586 13.286 185.705 10.2167 181.938L8.66621 183.202C12.0502 187.355 17.0441 190.414 23.555 192.435L24.1478 190.525ZM10.2167 181.938C7.14276 178.166 5.60145 173.735 5.60145 168.6H3.60144C3.60144 174.172 5.2868 179.054 8.66621 183.202L10.2167 181.938ZM5.60145 168.6C5.60145 164.076 6.69473 160.122 8.85652 156.705L7.16637 155.635C4.78149 159.405 3.60144 163.738 3.60144 168.6H5.60145ZM8.84872 156.717C11.0895 153.286 14.1725 150.617 18.1257 148.711L17.2571 146.909C12.9971 148.963 9.62669 151.868 7.17418 155.623L8.84872 156.717ZM18.1323 148.708C22.156 146.731 26.7681 145.73 31.9914 145.73V143.73C26.5081 143.73 21.5869 144.782 17.2505 146.912L18.1323 148.708ZM31.9914 145.73C36.7829 145.73 41.1572 146.588 45.1275 148.289L45.9154 146.451C41.6723 144.632 37.0266 143.73 31.9914 143.73V145.73ZM45.1415 148.295C49.124 149.931 52.5252 152.236 55.3573 155.21L56.8056 153.83C53.7711 150.644 50.1322 148.183 45.9014 146.445L45.1415 148.295ZM55.3743 155.227C58.2736 158.126 60.4315 161.555 61.8497 165.526L63.7332 164.854C62.218 160.611 59.9026 156.927 56.7886 153.813L55.3743 155.227ZM62.3838 164.277L50.0638 169.777L50.8791 171.603L63.1991 166.103L62.3838 164.277ZM51.4022 170.324C49.7253 166.056 47.1884 162.731 43.7748 160.404L42.6481 162.056C45.6878 164.129 47.9909 167.111 49.5407 171.056L51.4022 170.324ZM43.7874 160.413C40.3789 158.011 36.4341 156.82 31.9914 156.82V158.82C36.0554 158.82 39.5907 159.902 42.6355 162.047L43.7874 160.413ZM31.9914 156.82C29.3802 156.82 27.0328 157.281 24.9724 158.232L25.8105 160.048C27.5635 159.239 29.616 158.82 31.9914 158.82V156.82ZM25.0018 158.219C22.9417 159.091 21.285 160.375 20.0677 162.079L21.6952 163.241C22.6779 161.865 24.0279 160.803 25.7811 160.061L25.0018 158.219ZM20.0622 162.087C18.9012 163.745 18.3414 165.713 18.3414 167.94H20.3414C20.3414 166.061 20.8084 164.508 21.7007 163.233L20.0622 162.087ZM18.3414 167.94C18.3414 170.449 19.1581 172.692 20.7732 174.63L22.3097 173.35C20.9915 171.768 20.3414 169.977 20.3414 167.94H18.3414ZM20.7868 174.646C22.4139 176.517 24.8359 177.916 27.9492 178.903L28.5537 176.997C25.6537 176.077 23.6023 174.836 22.2961 173.334L20.7868 174.646ZM27.952 178.904L43.022 183.634L43.6209 181.726L28.5509 176.996L27.952 178.904ZM43.0116 183.631C49.4295 185.722 54.1245 188.575 57.1943 192.133L58.7086 190.827C55.325 186.905 50.2667 183.891 43.6313 181.729L43.0116 183.631ZM57.2016 192.142C60.3234 195.68 61.9014 200.057 61.9014 205.34H63.9014C63.9014 199.623 62.1795 194.76 58.7013 190.818L57.2016 192.142ZM61.9014 205.34C61.9014 209.852 60.7415 213.797 58.442 217.211L60.1009 218.329C62.6414 214.556 63.9014 210.215 63.9014 205.34H61.9014ZM58.442 217.211C56.1298 220.645 52.9353 223.356 48.8267 225.339L49.6962 227.141C54.0942 225.017 57.5731 222.082 60.1009 218.329L58.442 217.211ZM48.8267 225.339C44.7329 227.316 39.9367 228.32 34.4114 228.32V230.32C40.1796 230.32 45.2833 229.271 49.6962 227.141L48.8267 225.339ZM90.5879 228L89.6221 228.259L89.821 229H90.5879V228ZM68.5879 146.05V145.05H67.2841L67.6221 146.309L68.5879 146.05ZM84.6479 146.05L85.6187 145.81L85.4308 145.05H84.6479V146.05ZM101.918 215.9V216.9H103.195L102.889 215.66L101.918 215.9ZM97.7379 215.9L96.7697 215.65L96.4469 216.9H97.7379V215.9ZM115.778 146.05V145.05H115.003L114.81 145.8L115.778 146.05ZM131.288 146.05L132.257 145.801L132.064 145.05H131.288V146.05ZM149.218 215.9V216.9H150.507L150.187 215.651L149.218 215.9ZM145.038 215.9L144.067 215.66L143.761 216.9H145.038V215.9ZM162.308 146.05V145.05H161.525L161.337 145.81L162.308 146.05ZM178.368 146.05L179.334 146.309L179.672 145.05H178.368V146.05ZM156.368 228V229H157.135L157.334 228.259L156.368 228ZM139.208 228L138.242 228.258L138.44 229H139.208V228ZM121.058 160.02V159.02H119.756L120.092 160.278L121.058 160.02ZM125.898 160.02L126.864 160.278L127.2 159.02H125.898V160.02ZM107.748 228V229H108.516L108.714 228.258L107.748 228ZM91.5537 227.741L69.5537 145.791L67.6221 146.309L89.6221 228.259L91.5537 227.741ZM68.5879 147.05H84.6479V145.05H68.5879V147.05ZM83.6772 146.29L100.947 216.14L102.889 215.66L85.6187 145.81L83.6772 146.29ZM101.918 214.9H97.7379V216.9H101.918V214.9ZM98.7062 216.15L116.746 146.3L114.81 145.8L96.7697 215.65L98.7062 216.15ZM115.778 147.05H131.288V145.05H115.778V147.05ZM130.319 146.299L148.249 216.149L150.187 215.651L132.257 145.801L130.319 146.299ZM149.218 214.9H145.038V216.9H149.218V214.9ZM146.009 216.14L163.279 146.29L161.337 145.81L144.067 215.66L146.009 216.14ZM162.308 147.05H178.368V145.05H162.308V147.05ZM177.402 145.791L155.402 227.741L157.334 228.259L179.334 146.309L177.402 145.791ZM156.368 227H139.208V229H156.368V227ZM140.174 227.742L122.024 159.762L120.092 160.278L138.242 228.258L140.174 227.742ZM121.058 161.02H125.898V159.02H121.058V161.02ZM124.932 159.762L106.782 227.742L108.714 228.258L126.864 160.278L124.932 159.762ZM107.748 227H90.5879V229H107.748V227ZM176.332 228L175.387 227.674L174.929 229H176.332V228ZM204.602 146.05V145.05H203.889L203.657 145.724L204.602 146.05ZM223.962 146.05L224.907 145.724L224.675 145.05H223.962V146.05ZM252.232 228V229H253.635L253.177 227.674L252.232 228ZM235.952 228L235.003 228.314L235.23 229H235.952V228ZM230.122 210.4L231.071 210.086L230.844 209.4H230.122V210.4ZM198.442 210.4V209.4H197.724L197.495 210.08L198.442 210.4ZM192.502 228V229H193.22L193.45 228.32L192.502 228ZM202.732 197.2L201.784 196.883L201.343 198.2H202.732V197.2ZM225.832 197.2V198.2H227.221L226.78 196.883L225.832 197.2ZM212.192 156.39V155.39H210.803L211.244 156.707L212.192 156.39ZM216.372 156.39L217.32 156.707L217.761 155.39H216.372V156.39ZM177.277 228.326L205.547 146.376L203.657 145.724L175.387 227.674L177.277 228.326ZM204.602 147.05H223.962V145.05H204.602V147.05ZM223.017 146.376L251.287 228.326L253.177 227.674L224.907 145.724L223.017 146.376ZM252.232 227H235.952V229H252.232V227ZM236.901 227.686L231.071 210.086L229.173 210.714L235.003 228.314L236.901 227.686ZM230.122 209.4H198.442V211.4H230.122V209.4ZM197.495 210.08L191.555 227.68L193.45 228.32L199.39 210.72L197.495 210.08ZM192.502 227H176.332V229H192.502V227ZM202.732 198.2H225.832V196.2H202.732V198.2ZM226.78 196.883L213.141 156.073L211.244 156.707L224.884 197.517L226.78 196.883ZM212.192 157.39H216.372V155.39H212.192V157.39ZM215.424 156.073L201.784 196.883L203.681 197.517L217.32 156.707L215.424 156.073ZM261.353 228H260.353V229H261.353V228ZM261.353 146.05V145.05H260.353V146.05H261.353ZM273.013 146.05L273.815 145.454L273.516 145.05H273.013V146.05ZM318.113 206.77L318.309 207.751L319.857 207.441L318.915 206.174L318.113 206.77ZM312.063 207.98H311.063V209.2L312.259 208.961L312.063 207.98ZM312.063 146.05V145.05H311.063V146.05H312.063ZM327.023 146.05H328.023V145.05H327.023V146.05ZM327.023 228V229H328.023V228H327.023ZM315.253 228L314.444 228.588L314.743 229H315.253V228ZM270.813 166.84L270.598 165.863L269.105 166.192L270.004 167.428L270.813 166.84ZM276.313 165.63H277.313V164.386L276.098 164.653L276.313 165.63ZM276.313 228V229H277.313V228H276.313ZM262.353 228V146.05H260.353V228H262.353ZM261.353 147.05H273.013V145.05H261.353V147.05ZM272.21 146.646L317.31 207.366L318.915 206.174L273.815 145.454L272.21 146.646ZM317.917 205.789L311.867 206.999L312.259 208.961L318.309 207.751L317.917 205.789ZM313.063 207.98V146.05H311.063V207.98H313.063ZM312.063 147.05H327.023V145.05H312.063V147.05ZM326.023 146.05V228H328.023V146.05H326.023ZM327.023 227H315.253V229H327.023V227ZM316.062 227.412L271.622 166.252L270.004 167.428L314.444 228.588L316.062 227.412ZM271.027 167.817L276.527 166.607L276.098 164.653L270.598 165.863L271.027 167.817ZM275.313 165.63V228H277.313V165.63H275.313ZM276.313 227H261.353V229H276.313V227ZM342.886 228H341.886V229H342.886V228ZM342.886 146.05V145.05H341.886V146.05H342.886ZM357.846 146.05H358.846V145.05H357.846V146.05ZM357.846 188.73L357.514 189.673L358.846 190.141V188.73H357.846ZM353.776 187.3L353.012 186.654L352.075 187.762L353.444 188.243L353.776 187.3ZM388.646 146.05V145.05H388.182L387.882 145.404L388.646 146.05ZM407.456 146.05L408.22 146.695L409.608 145.05H407.456V146.05ZM374.786 184.77L373.789 184.687L373.529 187.81L375.55 185.415L374.786 184.77ZM375.666 174.21L376.52 173.69L374.924 171.071L374.669 174.127L375.666 174.21ZM408.446 228V229H410.226L409.3 227.48L408.446 228ZM390.846 228L389.992 228.521L390.284 229H390.846V228ZM368.846 191.92L369.7 191.399L368.975 190.212L368.08 191.277L368.846 191.92ZM357.846 205.01L357.08 204.367L356.846 204.646V205.01H357.846ZM357.846 228V229H358.846V228H357.846ZM343.886 228V146.05H341.886V228H343.886ZM342.886 147.05H357.846V145.05H342.886V147.05ZM356.846 146.05V188.73H358.846V146.05H356.846ZM358.177 187.787L354.107 186.357L353.444 188.243L357.514 189.673L358.177 187.787ZM354.54 187.946L389.41 146.696L387.882 145.404L353.012 186.654L354.54 187.946ZM388.646 147.05H407.456V145.05H388.646V147.05ZM406.692 145.405L374.022 184.125L375.55 185.415L408.22 146.695L406.692 145.405ZM375.782 184.853L376.662 174.293L374.669 174.127L373.789 184.687L375.782 184.853ZM374.812 174.73L407.592 228.52L409.3 227.48L376.52 173.69L374.812 174.73ZM408.446 227H390.846V229H408.446V227ZM391.7 227.479L369.7 191.399L367.992 192.441L389.992 228.521L391.7 227.479ZM368.08 191.277L357.08 204.367L358.611 205.653L369.611 192.563L368.08 191.277ZM356.846 205.01V228H358.846V205.01H356.846ZM357.846 227H342.886V229H357.846V227ZM417.544 228H416.544V229H417.544V228ZM417.544 146.05V145.05H416.544V146.05H417.544ZM471.994 146.05H472.994V145.05H471.994V146.05ZM471.994 159.25V160.25H472.994V159.25H471.994ZM432.504 159.25V158.25H431.504V159.25H432.504ZM432.504 180.26H431.504V181.26H432.504V180.26ZM469.794 180.26H470.794V179.26H469.794V180.26ZM469.794 193.46V194.46H470.794V193.46H469.794ZM432.504 193.46V192.46H431.504V193.46H432.504ZM432.504 214.8H431.504V215.8H432.504V214.8ZM471.994 214.8H472.994V213.8H471.994V214.8ZM471.994 228V229H472.994V228H471.994ZM418.544 228V146.05H416.544V228H418.544ZM417.544 147.05H471.994V145.05H417.544V147.05ZM470.994 146.05V159.25H472.994V146.05H470.994ZM471.994 158.25H432.504V160.25H471.994V158.25ZM431.504 159.25V180.26H433.504V159.25H431.504ZM432.504 181.26H469.794V179.26H432.504V181.26ZM468.794 180.26V193.46H470.794V180.26H468.794ZM469.794 192.46H432.504V194.46H469.794V192.46ZM431.504 193.46V214.8H433.504V193.46H431.504ZM432.504 215.8H471.994V213.8H432.504V215.8ZM470.994 214.8V228H472.994V214.8H470.994ZM471.994 227H417.544V229H471.994V227ZM482.964 228H481.964V229H482.964V228ZM482.964 146.05V145.05H481.964V146.05H482.964ZM528.174 149.13L527.739 150.031L527.748 150.035L527.758 150.039L528.174 149.13ZM538.294 157.93L537.445 158.459L537.45 158.466L538.294 157.93ZM537.854 186.31L537.029 185.745L537.022 185.755L537.854 186.31ZM527.074 195.11L526.687 194.188L525.645 194.625L526.206 195.606L527.074 195.11ZM545.884 228V229H547.608L546.752 227.504L545.884 228ZM528.944 228L528.071 228.488L528.358 229H528.944V228ZM508.814 192.03L509.323 191.169L506.131 189.283L507.941 192.518L508.814 192.03ZM518.494 197.75V198.75H522.152L519.003 196.889L518.494 197.75ZM497.924 197.75V196.75H496.924V197.75H497.924ZM497.924 228V229H498.924V228H497.924ZM497.924 184.55H496.924V185.55H497.924V184.55ZM520.694 183.01L521.154 183.898L521.167 183.891L521.18 183.884L520.694 183.01ZM525.314 178.5L524.448 178V178L525.314 178.5ZM525.314 165.3L524.448 165.8L524.452 165.807L524.456 165.814L525.314 165.3ZM520.694 160.9L520.208 161.774L520.221 161.781L520.234 161.788L520.694 160.9ZM497.924 159.25V158.25H496.924V159.25H497.924ZM483.964 228V146.05H481.964V228H483.964ZM482.964 147.05H513.434V145.05H482.964V147.05ZM513.434 147.05C518.884 147.05 523.644 148.053 527.739 150.031L528.609 148.229C524.197 146.1 519.131 145.05 513.434 145.05V147.05ZM527.758 150.039C531.913 151.941 535.133 154.745 537.445 158.459L539.143 157.401C536.615 153.341 533.088 150.279 528.59 148.221L527.758 150.039ZM537.45 158.466C539.748 162.087 540.924 166.548 540.924 171.9H542.924C542.924 166.252 541.68 161.4 539.138 157.394L537.45 158.466ZM540.924 171.9C540.924 177.381 539.609 181.979 537.029 185.745L538.679 186.875C541.525 182.721 542.924 177.712 542.924 171.9H540.924ZM537.022 185.755C534.495 189.546 531.059 192.354 526.687 194.188L527.461 196.032C532.182 194.052 535.933 190.994 538.686 186.865L537.022 185.755ZM526.206 195.606L545.016 228.496L546.752 227.504L527.942 194.614L526.206 195.606ZM545.884 227H528.944V229H545.884V227ZM529.817 227.512L509.687 191.542L507.941 192.518L528.071 228.488L529.817 227.512ZM508.305 192.891L517.985 198.611L519.003 196.889L509.323 191.169L508.305 192.891ZM518.494 196.75H497.924V198.75H518.494V196.75ZM496.924 197.75V228H498.924V197.75H496.924ZM497.924 227H482.964V229H497.924V227ZM497.924 185.55H513.654V183.55H497.924V185.55ZM513.654 185.55C516.493 185.55 519.004 185.012 521.154 183.898L520.234 182.122C518.423 183.061 516.241 183.55 513.654 183.55V185.55ZM521.18 183.884C523.313 182.699 524.987 181.068 526.18 179L524.448 178C523.441 179.745 522.035 181.121 520.208 182.136L521.18 183.884ZM526.18 179C527.379 176.922 527.964 174.545 527.964 171.9H525.964C525.964 174.242 525.449 176.265 524.448 178L526.18 179ZM527.964 171.9C527.964 169.189 527.382 166.803 526.171 164.785L524.456 165.814C525.446 167.464 525.964 169.478 525.964 171.9H527.964ZM526.18 164.8C524.983 162.726 523.301 161.126 521.154 160.012L520.234 161.788C522.046 162.728 523.445 164.061 524.448 165.8L526.18 164.8ZM521.18 160.026C519.024 158.828 516.504 158.25 513.654 158.25V160.25C516.231 160.25 518.404 160.772 520.208 161.774L521.18 160.026ZM513.654 158.25H497.924V160.25H513.654V158.25ZM496.924 159.25V184.55H498.924V159.25H496.924Z" fill="black" mask="url(#path-2-outside-1_0_1)"/>
</svg>
